<?xml version="1.0" standalone="no"?>
<!DOCTYPE svg PUBLIC "-//W3C//DTD SVG 20010904//EN"
 "http://www.w3.org/TR/2001/REC-SVG-20010904/DTD/svg10.dtd">
<svg version="1.0" xmlns="http://www.w3.org/2000/svg"
 width="96.000000pt" height="96.000000pt" viewBox="0 0 96.000000 96.000000"
 preserveAspectRatio="xMidYMid meet">

<g transform="translate(0.000000,96.000000) scale(0.100000,-0.100000)"
fill="#000000" stroke="none">
<path d="M90 670 c0 -5 9 -32 20 -60 11 -28 20 -69 20 -90 0 -22 5 -40 10 -40
6 0 10 20 10 44 0 24 9 65 20 91 22 51 24 65 12 65 -5 0 -17 -19 -26 -42 l-18
-43 -15 43 c-13 38 -33 57 -33 32z"/>
<path d="M216 661 c-13 -14 -18 -37 -19 -78 0 -74 14 -103 52 -103 35 0 50 17
58 64 16 99 -41 172 -91 117z m62 -33 c16 -16 15 -80 -1 -102 -21 -28 -51 -16
-60 24 -16 64 24 115 61 78z"/>
<path d="M356 663 c-11 -36 -36 -155 -36 -169 0 -34 18 -10 28 39 27 128 27
128 32 37 5 -77 7 -85 25 -85 17 0 23 14 41 85 l22 85 1 -87 c1 -51 5 -88 11
-88 11 0 14 157 4 184 -3 9 -12 16 -20 16 -12 0 -23 -28 -39 -105 -15 -69 -20
-66 -25 15 -4 69 -8 85 -22 88 -9 2 -19 -5 -22 -15z"/>
<path d="M554 669 c-6 -10 -43 -163 -44 -181 0 -5 4 -8 9 -8 6 0 18 36 28 80
10 44 20 80 23 80 3 0 12 -34 19 -75 12 -66 24 -95 36 -84 4 5 -31 175 -40
188 -8 14 -22 14 -31 0z"/>
<path d="M650 660 c0 -16 7 -20 35 -20 30 0 35 -3 35 -24 0 -21 -6 -25 -32
-28 -33 -3 -33 -4 -34 -58 -1 -34 0 -40 3 -17 6 50 37 52 53 2 14 -42 36 -49
25 -7 -9 29 -9 39 1 93 9 53 -9 79 -51 79 -28 0 -35 -4 -35 -20z"/>
<path d="M768 674 c-12 -11 -10 -194 2 -194 6 0 10 18 10 40 0 30 4 40 16 40
9 0 22 -17 31 -40 9 -22 20 -40 25 -40 11 0 10 11 -7 59 -12 36 -12 46 0 82
17 48 18 59 6 59 -5 0 -16 -19 -23 -42 -21 -61 -46 -63 -50 -3 -2 26 -6 43
-10 39z"/>
<path d="M641 350 c-13 -32 -9 -60 9 -60 5 0 10 20 10 45 0 25 -1 45 -3 45 -1
0 -8 -14 -16 -30z m6 -32 c-3 -8 -6 -5 -6 6 -1 11 2 17 5 13 3 -3 4 -12 1 -19z"/>
<path d="M80 340 c0 -5 5 -10 10 -10 6 0 10 5 10 10 0 6 -4 10 -10 10 -5 0
-10 -4 -10 -10z"/>
<path d="M270 323 c0 -32 1 -32 18 -15 10 10 13 19 7 21 -5 2 -13 9 -17 15 -4
6 -8 -4 -8 -21z"/>
<path d="M450 309 c0 -38 1 -39 17 -24 14 14 14 18 2 27 -11 7 -11 11 -1 15
17 7 15 23 -3 23 -11 0 -15 -11 -15 -41z"/>
<path d="M493 333 c-8 -21 5 -43 24 -43 16 1 16 2 -2 17 -16 13 -17 15 -2 10
9 -4 17 -2 17 4 0 5 10 13 23 18 18 7 15 9 -17 8 -21 -1 -40 -7 -43 -14z"/>
<path d="M580 340 c0 -6 5 -8 10 -5 6 3 10 0 10 -9 0 -8 -6 -16 -12 -19 -7 -2
-9 -8 -5 -13 10 -10 28 16 24 35 -3 17 -27 27 -27 11z"/>
<path d="M670 326 c0 -27 15 -42 25 -26 3 5 0 10 -7 10 -10 0 -10 2 1 9 7 5
10 14 7 20 -12 19 -26 12 -26 -13z"/>
<path d="M746 325 c8 -27 22 -40 31 -30 5 4 2 10 -4 12 -7 3 -13 11 -13 19 0
9 5 12 10 9 6 -3 10 -2 10 4 0 5 -9 9 -20 8 -15 -1 -19 -6 -14 -22z"/>
<path d="M794 335 c-9 -23 2 -42 25 -40 24 1 41 15 20 15 -12 0 -12 2 0 9 7 5
10 14 7 20 -10 16 -46 13 -52 -4z m26 -10 c0 -8 -4 -15 -10 -15 -5 0 -10 7
-10 15 0 8 5 15 10 15 6 0 10 -7 10 -15z"/>
<path d="M721 330 c0 -8 4 -22 9 -30 12 -18 12 -2 0 25 -6 13 -9 15 -9 5z"/>
<path d="M370 320 c0 -5 7 -7 15 -4 8 4 15 8 15 10 0 2 -7 4 -15 4 -8 0 -15
-4 -15 -10z"/>
</g>
</svg>
