<svg xmlns="http://www.w3.org/2000/svg" id="Camada_1" data-name="Camada 1" viewBox="0 0 1080 1080"><defs><style>      .cls-1 {        fill: #efe8dd;      }      .cls-2 {        fill: #0b0835;      }      .cls-3 {        fill: #d23527;      }      .cls-4 {        fill: #9f2117;      }    </style></defs><g><g><path class="cls-1" d="M286.08,805.66c-1.98,0-3.95-.02-5.95-.07-74.95-1.68-143.32-33.18-192.5-88.72-24.16-27.28-42.2-58.72-53.59-93.44-11.8-35.92-15.85-73.56-12.06-111.87,7.82-79.02,56.74-152.04,127.64-190.56,2.24-1.21,4.67-1.8,7.09-1.8,2.2,0,4.38.49,6.37,1.43,32.76-29.79,79.94-46.29,124.31-46.29,33.56,0,63.62,9.14,86.93,26.42.83.61,1.61,1.19,2.37,1.74,6.7,4.9,13.03,9.52,18.98,20.31.58,1.04,1.16,2.32,1.92,4.11,17.61,1.59,31.54,14.32,39.81,30.43,3.15.17,6.24,1.34,8.76,3.46,35.11,29.48,63.67,71.36,78.36,114.9,26.12,77.38,14.04,159.45-33.13,225.15-22.7,31.62-52.86,57.88-87.23,75.94-36.44,19.15-76.17,28.86-118.08,28.86ZM276.81,717.24c7.87,7.47,14.14,15.9,20.23,24.07.99,1.32,1.97,2.64,2.95,3.95l10.91-16.48c-5.83-.28-11.32-1.33-16.36-3.11-5.52-1.95-11.52-4.86-17.74-8.43ZM408.04,658.12c9.69,5.04,27.11,13.77,40.86,18.9.05.02.12.03.2.06,19.11-24.23,32.67-54.64,37.62-84.73,9.81-59.58-5.42-116.96-44.06-166.45.04,3.2.44,6.19,1.45,8.98.67,1.87.96,3.86.85,5.84-.88,15.97-.22,32.86.41,49.19.66,16.87,1.34,34.32.41,51.46-1.39,25.56-11.34,48.74-20.97,71.17-3.25,7.57-6.32,14.72-9.02,21.86-1.6,4.22-2.89,8.42-4.26,12.88-1.08,3.53-2.19,7.14-3.49,10.86ZM201.82,656.23c5.22,6.36,11.19,12.01,17.63,17.34-7.03-6.46-13.1-12.47-17.63-17.34ZM319.08,668.47c.75.05,1.46.07,2.14.07,3.2,0,5.67-.51,7.93-1.64.39-.32,1.06-.91,1.48-1.29,1.74-1.56,3.55-3.17,6.13-4.35,2.06-.94,4.38-1.43,6.71-1.43,3.56,0,6.92,1.16,9.62,3.24,0,0,0,0,0,0,2.82-2.6,6.44-3.95,10.09-3.95.27,0,.55,0,.82.02,5.32-6.68,8.97-17.31,12.29-27.03,1.44-4.2,2.93-8.55,4.54-12.56,2-4.97,3.97-9.74,5.88-14.39,13.04-31.64,22.46-54.49,21.85-89.51-.06-3.53-.11-7.13-.15-10.79-.3-25.05-.65-53.44-7.51-75.54-8.6-27.7-26.44-56.26-36.01-57.64-.43-.06-.92-.09-1.45-.09-2.2,0-4.84.5-7.63,1.03-3.34.64-6.79,1.29-10.48,1.29-1.13,0-2.25-.06-3.3-.19-3.73-.45-6.52-2.07-11.16-4.76-1.04-.6-2.75-1.6-3.42-1.93-5.1-2.09-10.48-3.06-16.92-3.06-7.09,0-14.54,1.18-22.42,2.43-6.92,1.1-14.08,2.23-21.55,2.65-2.14.12-4.3.18-6.59.18-5.19,0-9.95-.3-14.57-.59-4-.25-7.78-.49-11.36-.49-8.65,0-14.78,1.5-21.14,5.19-19.92,11.54-36.87,29.9-51.74,56.07l-.02,16.04c.84.34,1.66.72,2.44,1.14,15.35,8.36,19.39,24.54,22.33,36.34l.6,2.39c1.76,6.88-1.6,14.04-8.02,17.09-2.05.97-4.22,1.44-6.37,1.44-4.59,0-9.07-2.13-11.94-6.01l-10.14-13.69c-1.36-1.46-2.76-2.08-3.47-2.23-.07.08-.15.19-.25.34-1.7,2.53-3.51,12.47,1.78,31.96,4.33,15.96,11.25,30.06,16.04,36.15,2.75-6.68,9-9.77,14.64-9.77,1.32,0,2.66.16,4.01.47,6.03,1.41,10.55,6.41,11.35,12.54,3.49,26.78,13.91,50.58,30.13,68.88,1.47-.45,3.02-.68,4.61-.68,4.96,0,9.61,2.48,12.36,6.61,1.56,2.34,3.17,4.65,4.83,6.8,1.16-.28,2.34-.42,3.5-.42,4.88,0,9.59,2.41,12.4,6.67.67,1.01,1.4,1.99,2.18,2.94,1.2-.58,2.48-1.01,3.83-1.26.9-.17,1.8-.25,2.69-.25,4.72,0,9.22,2.25,12.04,6.17,2.4,3.33,5.09,6.41,7.91,9.09,2.04-.98,4.23-1.46,6.42-1.46,3.15,0,6.29,1,8.91,2.97l8.58,6.43c1.47.64,2.95,1.45,4.53,2.38ZM121.17,404.05c-58.27,62.83-69.44,162.07-25.71,240.81,0,0,.89,1.6,1.25,2.22.94-.56,1.94-1.17,2.93-1.77,4.34-2.64,8.82-5.37,13.16-6.9.79-.28,1.59-.51,2.38-.7,3.71-8.34,10.1-19.59,11.48-21.99,4.99-8.7,11.25-17.88,23.06-22.24.05-.51.31-3.16.39-4.05-.45-.24-.88-.5-1.31-.77-25.93-16.51-41.88-62.1-43.42-88.67-.66-11.33-2.09-35.96,15.92-50.37-.28-2.18-.56-4.6-.57-7.19,0-2.77-.04-5.65-.07-8.6-.1-9.5-.22-20.06.5-29.78Z"></path><path class="cls-2" d="M365.47,312.69c7.66,5.68,12.28,8.39,17.19,17.29,1.14,2.06,4.69,11.45,5.22,11.81,1.99,1.33,5.53-.26,7.61-.14,21.72,1.32,34.5,28.01,35.41,47.17.82,17.41-6.77,34.39-.77,51.07-1.83,33.22,2.61,67.65.82,100.66-1.68,31.02-18.24,60.03-29.05,88.58-3.54,9.34-5.62,18.3-9.09,27.42-.89,2.34-4.02,5.36-3.19,7.95.25.78,9.12,5.52,10.73,6.36,12.98,6.77,29.92,15.06,43.36,20.08,2.75,1.02,7.69,1.53,10.77,2.9,24.03-27.36,40.97-63,46.9-99.08,11.24-68.31-8.82-132.24-52.2-184.45-1.83-2.2-10.83-10.82-11.39-12.18-.26-.62.6-10.25.46-12.59-.25-4.31-1.63-8.97-1.65-13.35,33.12,27.81,59.94,67.1,73.84,108.27,52.87,156.66-66.06,313.95-229.98,310.29-147.92-3.31-258.27-130.6-243.71-277.71,7.4-74.75,54.49-143.41,119.95-178.98l-13.11,19.74c-4.69,16.1-13.19,20.52-24.21,30.95-72.18,68.36-84.73,181.23-36.92,267.33,1.3,2.34,7.63,13.85,9.6,13.65.5-.05,6.75-2.94,7.89-3.49,5.16-2.49,12.83-8.06,17.77-9.81,1.05-.37,2.14-.54,3.25-.34,9.06,35.58,28.86,72.05,57.25,95.67,2.55,2.12,5.82,3.8,8.13,5.66,1,.8.7,2.56,1.98,2.47.19-2.53-2.75-3.2-4.05-4.69-20.9-24.06-38.94-48.86-50.67-78.89-1.97-5.05-6.4-15.85-6.89-20.75-.22-2.16.24-3.44.99-5.37,2.39-6.12,8.4-17.11,11.81-23.07,6.07-10.57,11.11-16.85,24.43-17.34-.74-3.99,2.39-23.06,1.21-25.14-.76-1.34-6.4-3.23-8.39-4.5-20.54-13.08-35.21-53.6-36.57-77-.94-16.13-.41-33.84,16.25-41.5.75-5.04-.87-10.48-.88-15.24-.03-13.27-.64-29.28.85-42.22,11.1-96.38,155.13-142.29,229.03-87.49ZM324.93,332.15c3.4,3.24,7.1,6.06,9.86,10-11.55-29.93-51.04-38.74-79.91-34.05-.19,1.42,1.84.76,2.83.8,4.77.2,9.79-.35,14.51.1,19.32,1.84,38.86,9.93,52.71,23.14ZM343.82,315.7c-4.09-2.75-12.03-6.67-16.73-8.02-.87-.25-4.05-1.29-4.06.4,16.66,5.81,29.07,18.61,39.35,32.44-2.67-7.58-7.15-14.73-12.97-20.28-1.14-1.09-4.32-3.69-5.58-4.55ZM294.62,330.82c-15.86-4.3-32.1-7.9-48.66-7.3l16.42,3.29c7.79,2.31,19.55,4.09,28.61,4.8.89.07,3.78.65,3.63-.79ZM217.15,332.43v.81c.53-.27.53-.54,0-.81ZM258.12,342.17c-6.71-1.15-13.64-1.44-20.31-2.82-6.93-1.43-12.74-4.38-19.44-6.1,4.66,4.24,12.59,6.74,18.66,8.5,3.12.91,6.12.63,8.39,1.21.68.17.6,1.08.54,1.63,1.56.31.03-1.92,1.6-1.61-.36,2.92,1.69.89,3.66.8.8-.04,9.56.56,6.9-1.61ZM361.96,678.83c20.21-7.79,25.31-35.48,32.65-53.74,15.62-38.84,29.56-66.08,28.8-109.7-.51-28.92.21-62.98-8.32-90.47-5.99-19.29-25.75-64.71-48.07-67.94-8.65-1.25-17.32,2.7-23.23,2-1.25-.15-8.14-4.62-10.49-5.6-22.79-9.44-44.93-.42-67.58.85-22.23,1.25-39.45-5.8-60.27,6.26-25.96,15.04-44.89,39.06-59.14,65.05l-.04,29.69c.49,1.44,7.96,3.19,10.2,4.41,10.42,5.68,12.94,18.76,15.65,29.37l-10.52-14.21c-7.49-8.74-20.43-11.51-27.61-.8-12.59,18.78,5.64,70.08,19.13,86.35,7.45,8.98,18.11,10.48,24.06-.99.91-1.76-.26-4.41,2.25-3.83,3.74,28.71,14.78,55.62,34.12,77.23,3.33,3.72,14.99,15.29,19.03,16.86.99.39,1.59-.2,1.19-1.19-.78-1.94-3.32-5.02-4.43-7.74-.26-.63-2.15-4.04-.44-4.03,6.14,9.2,13.62,19.14,24.33,23.12-2.11-2.95-3.19-6.58-3.64-10.13,6.69,10.13,16.85,16.94,26.78,23.5,1.16-.64.06-2.09-.39-2.85-2.2-3.73-6.65-7.49-5.3-12.55,6.32,8.77,15.21,17.28,25.01,22.04,1.82.89,5.35,2.62,7.03,1.89-2.86-2.53-5.35-6.2-5.67-10.14l10.42,7.82c1.56.13,6.54,3.54,6.97,3.59,7.75.94,15.08.61,22.1-3.16,2.27-1.22,5.2-4.48,6.35-5.01.35-.16,1.33-.21,1.2.4l-4.86,6.89c8.78.3,17.45-2.1,23.94-8.1l-1.22,4.86ZM411.85,366.5v.81c.53-.27.53-.54,0-.81ZM426.04,383.54c-.28-7.94-5.94-13.42-12.97-16.22,2.14,2.55,5.29,5.12,7.28,7.72,2.14,2.81,3.17,6.2,5.69,8.5ZM173.75,371.38c-.7-.74-4.15,3.34-5.28,3.23-7.03,6.44-14.22,12.84-17.85,21.9,5.62-6.11,12.38-11.65,17.87-17.82.74-.83,5.8-6.73,5.26-7.31ZM421.98,393.27c1.28-6.95-7.62-15.18-13.78-17.02,1.38,2.79,4.47,1.64,4.84,5.26l8.94,11.77ZM201.11,630.31c-2.2-2.88-7.34-6.47-8.84-10.97l-13.64-28.12c-.92,9.58-2.5,19.21-3.25,28.8-.98,12.53-2.32,17.94,3.91,29.34,19.55,35.77,56.27,51.39,84.93,76.5,10.12,8.86,17.81,20.42,25.87,30.92,1.08,1.41,9.81,14.55,11.01,13.72l40.56-61.26c-13.26,3.8-28.68,7.19-42.15,2.42-25.94-9.18-69.2-46.17-88.05-66.9-4.25-4.67-7.07-10.16-10.35-14.46ZM392.8,754.27c1.21-.2,1.58-1.56,1.88-2.57,1.41-4.82.84-20.43.58-26.26-.41-9.08-2.02-18.23-3.69-27.15-.05,18.64-3.18,37.67,1.23,55.98ZM252.36,731.65c-.18-.27-5.22-2.55-5.97-2.57-9.84-.29-18.08,18.95-22.91,25.8l-8.35,11.56c11.09-3.63,15.37-15.9,22.69-23.95,3.59-3.95,5.97-5.71,10.95-7.73,1.68-.68,5.32-.49,3.6-3.12ZM369.57,745.05c-3.54-3.55-6.63-6.55-12.19-6.94-7.36-.52-16.31,5.78-18.13,12.93,14.71-10.64,27.59-6.98,38.53,6.47-1-5.05-4.69-8.92-8.21-12.46ZM217.55,773.74v-4.05s-.79,0-.79,0c-.05,1.72-1.44,3.45.79,4.05ZM220.8,771.32c-1.14-.58-2.16.51-1.61.79,1.14.58,2.16-.51,1.61-.79Z"></path><path class="cls-1" d="M248.62,605.99c-4.72,0-8.11-2.22-9.56-3.17-2.06-1.35-3.75-3.19-4.93-5.36-.09-.17-.19-.33-.28-.5-.65-1.13-1.64-2.83-2.4-5.09-1.73-5.12-2.67-9.67-2.81-13.5-.91-26.58,15.34-35.26,27.21-41.6,3.12-1.67,6.06-3.24,8.9-5.13,5.98-3.98,11.52-9.02,17.38-14.35,5.63-5.12,11.46-10.42,18.12-15.18,2.49-1.78,5.46-2.74,8.52-2.77.04,0,.21,0,.25,0,9.99,0,14.78,6.63,15.85,12.31.57,3.02.2,6.42-1.35,9.48,8.66.28,14.95,4.05,19.16,6.57,2.48,1.49,3.84,2.25,4.86,2.43.17-.12.35-.28.47-.44,0-1.28-.31-5.27-3.29-15.17-.71-2.36-2.17-5.92-3.72-9.69-4.94-12.03-10.55-25.66-7.95-37.19,2.41-10.71,16.52-18.76,24.5-18.76,2.22,0,4.35.45,6.29,1.31,3.78-1.69,8.32-2.87,13.9-2.87.84,0,1.71.03,2.61.08,18.72,1.2,27.99,11.15,36.18,19.94.09.1.18.2.27.29l6.16,1.81c6.37,1.88,10.72,7.75,10.66,14.39-.07,6.64-4.53,12.43-10.94,14.18-4.18,1.14-8.28,1.72-12.19,1.72-5.8,0-11.31-1.25-16.41-3.71-3.67,2.79-8.34,4.42-13.73,4.65.27.85.53,1.69.79,2.53,1.09,3.52,2.22,7.16,3.27,9.56,1.28,1.89,5.98,6.47,8.82,9.23,4.02,3.91,7.81,7.61,10.49,11.08,14.79,19.21,17.77,36.86,8.87,52.47-2.69,4.71-7.66,7.5-12.9,7.5-1.19,0-2.39-.14-3.58-.44-6.45-1.6-11.06-7.3-11.27-13.94-.25-7.75-3.3-15.28-8.67-21.81-6.06,6.68-15.02,12.61-28.01,12.61-4.73,0-9.8-.83-15.09-2.46-3.79-1.17-7.29-3.23-10.39-5.04-.48-.28-1.07-.63-1.62-.94-.11.01-.22.03-.33.04-1.68.19-3.76.42-5.95.42-.82,0-1.62-.03-2.38-.1-6.49-.56-11.49-2.84-15.45-5.68-1.64,1.36-3.34,2.67-5.1,3.85-4.28,2.88-9.14,5.15-13.85,7.34-4.91,2.29-11.59,5.41-13.66,7.89-.46.78-1.29,2.32-1.92,3.58,0,.6-.02,1.2-.03,1.8-.03,1.7-.05,3.35-.04,4.94,2.34,5.53.89,10.14-.38,12.65-2.53,4.99-7.74,8.18-13.34,8.18Z"></path><path class="cls-2" d="M247.57,589.19c.02.36,2.8,3.29-.39,1.2-.58-1.06-1.28-2.09-1.67-3.24-.81-2.4-1.93-6.25-2.04-9.27-.77-22.43,14.42-23.8,29.5-33.85,13.02-8.67,23.21-20.75,35.91-29.81,2.95-.02.27.72.21.82-3.87,6.9-8.19,16.87,1.52,21.64,4.6,2.26,5.85-.09,9.61-.55,11.77-1.45,16.39,8.76,27.52,8.92,7.17.1,14.3-6.36,15-13.44.59-5.92-2.08-15.52-3.82-21.33-3.08-10.25-13.64-29.44-11.41-39.35.71-3.16,9.52-7.95,10.37-7.06,1.54,1.61-6.32,6.42-1.99,9.76,8.38-5.29,12.03-12.1,23.48-11.37,14.51.93,20.17,8.93,29.34,18.52l10.02,2.95c-6.69,1.83-13.26,1.77-19.42-1.67-2.04-1.14-10.23-8.5-11.01-8.45-1.68.11-.25,4.47-.76,6.48-1.34,5.3-5.79,6.12-10.63,5.71-7.63-.65-7.49-7.27-8.1-7.37-2.68-.44-3.93,1.76-6.01,2.93-1.88,1.06-4.67.63-4.71,3.31-.04,2.4,4.92,11.53,6.09,14.67,2.29,6.12,4.3,14.42,6.83,19.96s16.01,16.53,20.9,22.88c7.86,10.21,14.91,23.48,7.74,36.06-.59-18.56-11.7-33.97-26.75-43.82-7.41,15.97-17.16,24.11-35.48,18.44-4.33-1.34-10.69-6.28-13.57-6.73-2.42-.38-6.98.78-10.23.5-7.9-.68-11.48-5.84-16.19-11.37-4.33,3.86-9.15,8.81-13.92,12.02-9.13,6.15-24.95,10.23-31.38,19-.88,1.2-4.59,8.19-4.59,9.11,0,4.57-.21,9.23,0,13.79Z"></path><path class="cls-1" d="M328.96,626.41c-22.04,0-48.81-8.25-65.09-26.03-2.66,1.28-5.14,1.56-6.78,1.56h0c-3.49,0-14.93-1.31-16.2-18.12-1.15-15.25,9.96-28.4,25.29-29.95,1.02-.1,2.04-.15,3.12-.15,1.33,0,2.5.08,3.45.14.52.03,1.05.08,1.6.08.2,0,.35,0,.51-.04.64-.32,1.84-1.06,2.59-1.51,2.32-1.41,4.71-2.87,7.56-3.75,1.68-.52,3.37-.78,5.03-.78,3.68,0,7.09,1.25,9.76,3.43.93-.49,1.95-.97,3.04-1.41,1.8-.73,3.69-1.08,5.57-1.08,2.75,0,5.47.77,7.83,2.23.1-.1.21-.2.31-.3,2.82-2.83,6.62-4.37,10.52-4.37,1.33,0,2.68.18,3.99.55,2.65.74,5,2.19,6.82,4.13,2.38-1.48,5.11-2.24,7.84-2.24,2,0,4,.4,5.89,1.22.72.31,1.4.67,2.04,1.08,2.62-2.03,5.83-3.11,9.1-3.11,1.53,0,3.07.24,4.57.72,1.46.47,2.81,1.15,4.02,2.01,1.7-.62,3.4-.99,5.46-.99.98,0,2,.1,2.96.29,5.64,1.12,13.32,7.87,13.39,7.93,7.22,6.65,11.1,17.02,10.39,27.76-.38,5.74-4.04,10.74-9.39,12.84-1.76.69-3.6,1.03-5.43,1.03-1.3,0-2.59-.17-3.84-.5-10.47,17.39-30.79,27.34-55.94,27.34Z"></path><path class="cls-2" d="M323.83,570.93c8.05.14,15.34-3,21.89-7.3.65,3.71-2.18,5.52-4.05,8.1,1.98-.71,4.63.87,6.02.83.55-.01.49-1.38,1.02-1.64,5.1-2.42,9.79-3.83,14.04-8.11.52,3.29-1.51,4.96-3.24,7.29,3.48,2.08,16.34-5.74,17.32-5.55.37.07,5.69,3.78,6.25,4.3,4.22,3.88,6,10.23,5.63,15.86l-7.31-6.89c-1.02-.57-2.26-.75-3.27-.04-.93.64-4.2,10.54-5.63,13.03-19.89,34.54-90.82,22.89-105.48-12.58-4.45.5-6.32,4.88-8.68,7.9-2.13,2.72-2.48-1.09-2.66-3.44-.55-7.26,4.71-13.32,11.97-14.05,3.81-.38,6.7.85,11.56-.53,3.28-.93,7.78-4.55,10.14-5.28,3.95-1.21-3.18,6.87-3.67,7.28,4.54.29,8.48,0,12.8-1.38,3.62-1.16,6.46-3.7,9.91-5.09.74.76-2.84,6.25-4.05,6.9,8.51.65,16.7-3.31,22.7-9.33.96,3.93-2.84,6.11-3.23,9.73ZM365.2,579.06c-29.84,5.5-60.37,1.46-90.05-3.24,4.41,5.95,9.49,9.65,16.23,12.56,16.32,7.06,51.81,11.65,66.54.02,2.93-2.31,5.88-5.88,7.28-9.34Z"></path><path class="cls-1" d="M229.73,477.08c-2.62,0-5.24-.69-7.58-2.08-5.03-2.98-7.84-8.64-7.18-14.45,2.36-20.73,13.38-35.6,32.76-44.23,8.05-3.58,18.47-5.72,27.86-5.72,12.47,0,22.79,3.59,29.85,10.39,6.96,6.7,10.56,16.57,9.63,26.41-.46,4.86-3.28,9.19-7.55,11.57-2.25,1.25-4.74,1.88-7.24,1.88-1.71,0-3.41-.29-5.04-.88-.26,0-.53,0-.79,0-13.73,0-37.06,3.19-45.45,7.14-2.21,1.04-4.72,2.89-7.38,4.84-1.12.82-2.24,1.64-3.35,2.43-2.55,1.79-5.55,2.7-8.54,2.7Z"></path><path class="cls-2" d="M295.15,431.69c3.75,3.61,5.64,9.14,5.15,14.31-1.22-.6-2.22-.82-3.6-.86-13.6-.37-41.89,2.81-54.03,8.53-4.67,2.2-8.77,5.63-12.94,8.55,1.79-15.75,9.82-26.01,24.04-32.33,11.23-5,31.79-7.43,41.37,1.79Z"></path><path class="cls-1" d="M247.4,499.69c-11.28,0-15.94-3.37-18.46-5.9-4.34-4.36-5.9-10.28-4.18-15.84.79-2.55,3.45-8.48,11.42-10.46,1.4-.59,1.67-.93,3.11-2.72,1.69-2.1,3.99-4.98,7.98-8.12,9.19-7.27,23.19-11.79,36.54-11.79,8.1,0,15.57,1.7,21.61,4.9,15.9,8.45,14.18,20.77,13.36,26.69-.17,1.22-.33,2.38-.39,3.56-.16,3.13-1.3,6.13-3.27,8.57-2.87,3.56-7.14,5.59-11.73,5.59-3.43,0-6.2-1.06-8.83-2.65-5.11,4.92-12.45,7.86-20,7.86h0c-4.79,0-9.21-1.18-12.92-3.33-2.31,1.35-4.89,2.48-7.72,3.07-1.81.38-3.99.57-6.5.57Z"></path><path class="cls-2" d="M303.55,479.26c-.57.7-6.8-4.66-8.1-5.28-1.39-.66-8.15-2.81-8.93-2.02,3.51,11.73-15.75,16.81-20.18,8.42-1.52-2.87.36-4.61-2.98-4.41-1.18.07-7.35,7.54-12.48,8.61-2.43.51-9.8.34-11.4-1.27-1.46-1.47.49-1.34,1.2-1.62,9.64-3.77,8.85-7.89,15.81-13.4,10.22-8.08,30.24-11.65,41.97-5.42,8.62,4.58,5.52,8.06,5.1,16.39Z"></path><path class="cls-1" d="M413.87,472.22c-.36,0-.73-.01-1.09-.04-6.52-.48-11.64-2.95-15.77-4.94-1.69-.81-3.28-1.58-4.52-1.98-5.63-1.8-11.37-2.75-16.62-2.75-3.34,0-6.51.38-9.41,1.12-1.22.31-2.46.47-3.69.47-3.07,0-6.11-.96-8.66-2.78-3.57-2.56-5.82-6.57-6.15-10.95-1.8-23.86,11.69-31.25,19.9-33.53,4.6-1.28,10.53-1.98,16.71-1.98,6.88,0,16.66.86,24.12,4.98,1.98,1.09,3.47,2.38,4.56,3.57,1.4.78,2.91,1.83,4.51,3.37,8.74,8.46,11.39,21.7,10.95,31.27-.18,4.01-1.98,7.77-4.98,10.43-2.73,2.42-6.24,3.74-9.86,3.74Z"></path><path class="cls-2" d="M403.61,435.17c1.22.86,2.25.76,3.82,2.28,4.92,4.76,6.75,13.31,6.44,19.92-6-.44-11.04-4.4-16.86-6.26-10.91-3.48-23.07-4.73-34.24-1.86-.59-7.87.5-15.72,9.06-18.1,7.6-2.11,22.66-2.18,29.67,1.69,1.29.71,1.44,1.88,2.1,2.34Z"></path><path class="cls-1" d="M167.25,558.2c-5.43,0-10.5-2.98-13.1-7.86l-1.99-3.74c-.51-.44-1.01-.87-1.51-1.29-4.24-3.61-9.83-8.38-13.18-15.56-6.71-1.11-11.26-6.45-13.54-15.89-.47-1.95-1.28-5.77-1.45-7.75-2.37-26.89,9.04-35.73,19.04-38.41,1.57-.42,3.21-.64,4.86-.64,14.89,0,25.94,17.71,26.41,18.46.55.89,13.26,21.87,5.52,35.13-.15.26-.3.5-.46.74.94,1.78,1.92,3.85,2.62,6.22,1.22,4.11,3,12.1,1.22,19.31-1.48,5.97-6.48,10.41-12.59,11.17-.61.08-1.23.11-1.84.11Z"></path><path class="cls-2" d="M165.46,513.17c-.2.35-2.19.96-3.09,2.17-3.98,5.36,2.24,11.1,3.84,16.49.98,3.31,1.86,8.2,1.04,11.52l-3.24-6.07c-7.3-6.73-15.31-11.07-14.55-22.6.28-4.2,4.12-8.66,3.96-12.22-.13-2.86-4.06-9.36-7.49-8.48-6,1.55-6.05,15.97-5.45,20.98-1.12,1.59-3.12-8.99-3.22-10.15-.67-7.62-1.16-20.27,8.09-22.76,4.78-1.28,12.36,7.33,14.77,11.26,2.29,3.73,7.56,16.08,5.35,19.87Z"></path><path class="cls-1" d="M332.98,646.33c-15.84,0-31.24-5.85-40.2-15.28-4.49-4.73-5.37-11.84-2.17-17.52,2.67-4.74,7.66-7.56,12.94-7.56,1.05,0,2.11.11,3.17.34l19.1,4.17c2.03.18,3.91.27,5.72.27,3.61,0,6.82-.36,9.84-1.1,2.29-.56,5.03-1.88,7.94-3.28,1.38-.66,2.75-1.32,4.13-1.94,1.94-.87,4.01-1.3,6.08-1.3,2.59,0,5.17.68,7.48,2.02,4.14,2.41,6.86,6.67,7.31,11.43.73,7.66-3.53,12.75-5.13,14.67l-.19.23c-7.75,9.43-20.88,14.84-36,14.84Z"></path><path class="cls-2" d="M359.52,617.99c.16,1.64-1.06,2.9-2.01,4.07-11.52,14.01-41.97,11.38-53.96-1.23l19.97,4.36c7.18.72,14.34.63,21.41-1.11,5.14-1.26,9.82-3.95,14.59-6.09Z"></path><path class="cls-1" d="M163.55,435.86c-1.37,0-2.74-.16-4.3-.5-4.86-1.05-8.87-4.47-10.68-9.09-1.81-4.63-1.2-9.86,1.65-13.93,1.83-2.61,3.6-5.63,5.49-8.82,4.44-7.52,9.46-16.02,17.23-22.75,4.36-4.67,9.15-5.65,12.46-5.65,1.3,0,2.61.15,3.9.46,4.1.96,7.6,3.62,9.63,7.31,2.03,3.69,2.4,8.07,1.01,12.05-4.75,13.63-15.43,26.97-24.09,35.18-4.17,4.99-9.44,5.76-12.31,5.76Z"></path><path class="cls-2" d="M185.92,390.04c-3.68,10.54-12.63,22.19-20.84,29.81-.9.84-.52,1.47-2.68,1,6.68-9.57,11.59-21.58,20.68-29.2.91-.76,1.32-1.97,2.84-1.61Z"></path><path class="cls-1" d="M273.73,516.82c-3.38,0-6.8-.41-10.16-1.22-6.4-1.54-11.01-7.11-11.35-13.68-.34-6.57,3.69-12.58,9.9-14.77l10.43-3.68c.51-.25,1.21-.62,2.01-1.03,8.01-4.16,13.68-6.89,19.28-6.89,3.95,0,7.57,1.31,10.46,3.79,3.37,2.88,5.31,7.09,5.34,11.54.04,7.93-5.74,13-8.84,15.72-7.65,6.7-16.99,10.22-27.05,10.22Z"></path><path class="cls-2" d="M294.62,490.63c.95.82-3.02,4.27-3.67,4.84-6.65,5.82-15.26,7.78-23.9,5.69l11.09-3.91c2.56-1.08,14.69-8.17,16.49-6.63Z"></path><path class="cls-1" d="M162.6,461.73c-4.06,0-7.87-1.57-10.72-4.43-4.82-4.84-5.73-12.34-2.19-18.18l16.21-26.77c2.75-4.53,7.61-7.16,12.71-7.16,1.46,0,2.93.21,4.38.66,6.51,2.01,10.82,8.19,10.45,14.99-.76,14.09-6.4,25.88-16.3,34.12-5.02,4.18-9.21,6.77-14.54,6.77Z"></path><path class="cls-2" d="M162.4,446.81l16.21-26.77c-.5,9.2-3.84,17.58-10.97,23.5-.75.62-4.67,3.84-5.25,3.26Z"></path><path class="cls-1" d="M383.69,516.07c-3.04,0-5.65-.35-7.3-.64-11.55-2.02-23.6-10.19-22.76-23.33.28-4.35,2.46-8.36,5.95-10.96,2.59-1.93,5.7-2.94,8.87-2.94,1.11,0,2.23.12,3.33.38,3.47.8,6.68,1.91,9.52,2.89,3.64,1.26,7.08,2.44,9.6,2.44.12,0,.25,0,.37,0,.23-.01.47-.02.7-.02,5.82,0,11.13,3.41,13.54,8.76,2.5,5.56,1.35,12.09-2.9,16.46-3.09,3.18-8.89,6.97-18.92,6.97Z"></path><path class="cls-2" d="M391.97,498.74c-2.86,2.93-9.25,2.72-13.02,2.06-3.63-.64-10.78-3.36-10.5-7.75,7.83,1.8,15.25,6.07,23.52,5.68Z"></path><path class="cls-1" d="M333.57,469.78c-3.88,0-7.66-1.52-10.47-4.32-3.55-3.53-5.08-8.6-4.08-13.5l.75-3.7c.28-1.35.74-2.66,1.37-3.88l7.35-14.14c2.59-4.99,7.72-8.01,13.18-8.01,1.02,0,2.06.11,3.09.33,6.53,1.39,11.34,6.97,11.74,13.63,1.05,17.45-6.74,30.51-19.87,33.27-1.02.21-2.04.32-3.06.32Z"></path><path class="cls-2" d="M333.57,454.93l.75-3.7,7.35-14.14c.37,6.13-.93,16.33-8.1,17.84Z"></path><path class="cls-1" d="M222.82,500.02c-10.97,0-19.82-6.82-21.52-16.58-.75-4.32.44-8.75,3.27-12.11,2.82-3.36,6.98-5.29,11.37-5.29h14.6c4.65,0,9.03,2.17,11.83,5.88,2.81,3.7,3.72,8.51,2.47,12.98-2.53,9.04-11.38,15.12-22.02,15.12Z"></path><path class="cls-2" d="M230.54,480.89c-1.52,5.43-13.56,5.96-14.6,0h14.6Z"></path><path class="cls-1" d="M228.1,609.31c-3.67,0-7.3-1.36-10.12-3.98-7.46-6.94-11-18.23-9.48-30.2,1.29-10.12,8.99-14.73,15.61-14.73,4.9,0,9.49,2.34,12.58,6.43,1.43,1.89,2.39,4.09,2.79,6.43l3.24,18.66c1.09,6.28-1.95,12.56-7.56,15.6-2.23,1.21-4.66,1.79-7.07,1.79Z"></path><path class="cls-2" d="M224.86,575.8l3.24,18.66c-4.51-4.2-5.61-11.55-4.86-17.46.14-1.12.61-2.54,1.62-1.21Z"></path><path class="cls-1" d="M277.64,664.73c-6.97,0-13.09-4.14-18.2-12.3-3.63-5.8-7.16-14.38-3.32-22.28,2.03-4.17,5.88-7.15,10.43-8.07.97-.2,1.96-.29,2.93-.29,3.58,0,7.07,1.29,9.81,3.7,4.96,4.36,8.09,9.89,10.61,14.33.44.77.87,1.53,1.3,2.26,3.77,6.4,2.23,14.59-3.59,19.19-2.82,2.23-6.36,3.46-9.97,3.46Z"></path><path class="cls-2" d="M278.4,649.62c-2.75,2.17-10.37-9.98-8.92-12.97,3.77,3.32,6.36,8.62,8.92,12.97Z"></path><path class="cls-1" d="M298.64,672.59c-11.64-.03-20.63-8.97-23.46-23.33-.86-4.36.28-8.87,3.09-12.3,2.82-3.43,7.02-5.42,11.46-5.43,0,0,1.62,0,1.63,0,5.05,0,9.75,2.56,12.49,6.81l7.31,11.35c2.95,4.57,3.16,10.39.55,15.17-2.61,4.77-7.6,7.73-13.03,7.73h-.03Z"></path><path class="cls-2" d="M291.37,646.39l7.31,11.35c-5.44-.01-8.01-6.73-8.92-11.35h1.61Z"></path><path class="cls-1" d="M258.93,658.8c-1.54,0-3.09-.24-4.6-.73-10.15-3.31-16.81-12.9-18.26-26.31-.75-6.96,3.45-13.5,10.1-15.7,1.54-.51,3.11-.75,4.66-.75,5.15,0,10.08,2.69,12.81,7.33l8.1,13.79c3.13,5.32,2.64,12.02-1.23,16.83-2.87,3.57-7.16,5.54-11.57,5.54Z"></path><path class="cls-2" d="M258.93,643.94c-5.47-1.78-7.54-8.59-8.1-13.79l8.1,13.79Z"></path><path class="cls-1" d="M238.03,642.05c-6.95,0-12.59-4.08-16.77-12.11-3.58-6.9-6.71-16.75-1.25-24.53,2.88-4.1,7.47-6.32,12.17-6.32,2.59,0,5.21.68,7.58,2.09,5.04,3,7.45,7.91,8.75,10.55l.27.54c3.37,6.56,8.48,16.49.71,24.79-2.97,3.17-7.15,4.99-11.46,4.99Z"></path><path class="cls-2" d="M238.65,626.91c-2.22,2.37-8.06-10.72-6.48-12.97,1.47.88,2.61,3.56,3.4,5.11.59,1.15,3.61,7.3,3.08,7.87Z"></path><path class="cls-1" d="M370.07,668.53c-4.19,0-8.24-1.78-11.09-4.97-3.51-3.94-4.66-9.43-3.04-14.45l4.45-13.78c1.41-4.36,4.76-7.83,9.07-9.4,1.64-.6,3.36-.89,5.06-.89,2.77,0,5.52.78,7.92,2.29,6.16,3.89,8.99,10.5,7.55,17.46-1.13,17.63-11.08,22.26-17.01,23.45-.97.19-1.95.29-2.91.29Z"></path><path class="cls-2" d="M370.07,653.68l4.45-13.78c1.7,1.08.74,1.85.69,3.04-.14,3.79-.57,9.82-5.15,10.74Z"></path><path class="cls-1" d="M257.77,637.05c-8.01,0-13.16-6.12-15-8.75-4.46-6.36-6.46-13.44-5.95-21.05.28-4.14,2.28-7.97,5.51-10.57,2.66-2.13,5.94-3.28,9.31-3.28.73,0,1.47.05,2.21.16,3.03.46,10.32,2.49,13.37,11.58,5.4,11.26,8.81,18.81,2.19,26.55-2.91,3.4-7.15,5.36-11.64,5.36Z"></path><path class="cls-2" d="M258.12,622.04c-.7.82-2.91-1.87-3.19-2.26-2.47-3.52-3.59-7.13-3.29-11.52,1.41.21,1.38,1.65,1.84,2.61.65,1.35,5.03,10.72,4.64,11.18Z"></path><path class="cls-1" d="M220.8,636.89c-1.15,0-2.3-.13-3.45-.41-12.28-2.93-18.29-15.49-17.87-26.37.18-4.78,2.66-9.18,6.65-11.82,2.46-1.63,5.32-2.46,8.19-2.46,1.79,0,3.58.32,5.29.98,10.28,3.92,15.61,21.35,15.65,21.52,1.16,5.01-.19,10.19-3.61,13.85-2.84,3.04-6.79,4.71-10.85,4.71Z"></path><path class="cls-2" d="M220.8,622.04c-4.61-1.1-6.64-7.2-6.48-11.35,1.69.65,6.95,10.84,6.48,11.35Z"></path><path class="cls-1" d="M382.33,651.79c-5.84,0-11.18-3.24-13.95-8.45-2.43-4.58-2.54-9.96-.39-14.58l3.59-9.52c1.97-5.24,6.73-8.92,12.29-9.53.54-.06,1.08-.09,1.61-.09,4.98,0,9.68,2.51,12.44,6.75,6.28,9.65,1.3,26.02-5.28,31.6-2.91,2.46-6.56,3.81-10.3,3.81Z"></path><path class="cls-2" d="M383.04,636.64c-1.15.98-2.23-.7-1.45-1.85l3.89-10.3c1.57,2.41-.77,10.75-2.44,12.16Z"></path><path class="cls-1" d="M318.46,676.81c-9.55,0-16.14-8.61-17.94-11.25-5.24-7.71-3.92-14.17-2.66-17.34,1.5-3.79,4.5-6.8,8.28-8.32,1.78-.71,3.65-1.07,5.53-1.07,2.12,0,4.24.45,6.21,1.36,4.93,2.27,7.63,5.89,9.08,7.84.06.08.12.17.19.25,1.55,1.42,4.9,4.58,6.23,9.89,1.35,5.4-.43,11.11-4.62,14.78-2.83,2.48-6.49,3.85-10.29,3.85Z"></path><path class="cls-2" d="M316.06,658.21c.88,1.04,2.5,1.98,2.9,3.58-1.52,1.33-8.27-5.64-7.29-8.1,2.02.93,3.04,2.94,4.39,4.53Z"></path><path class="cls-1" d="M303.14,634.46c-2.69,0-5.37-.73-7.74-2.18-4.42-2.7-7.11-7.5-7.11-12.68v-.81c0-5.18,2.69-9.98,7.11-12.68,2.37-1.45,5.05-2.18,7.74-2.18,2.33,0,4.65.54,6.79,1.64,5.22,2.68,8.46,7.9,8.46,13.62s-3.24,10.94-8.46,13.62c-2.14,1.1-4.46,1.64-6.79,1.64Z"></path><path class="cls-2" d="M303.14,618.8c.53.27.53.54,0,.81v-.81Z"></path></g><circle class="cls-1" cx="272.4" cy="542.37" r="236.94"></circle><g><path class="cls-2" d="M365.47,312.69c7.66,5.68,12.28,8.39,17.19,17.29,1.14,2.06,4.69,11.45,5.22,11.81,1.99,1.33,5.53-.26,7.61-.14,21.72,1.32,34.5,28.01,35.41,47.17.82,17.41-6.77,34.39-.77,51.07-1.83,33.22,2.61,67.65.82,100.66-1.68,31.02-18.24,60.03-29.05,88.58-3.54,9.34-5.62,18.3-9.09,27.42-.89,2.34-4.02,5.36-3.19,7.95.25.78,9.12,5.52,10.73,6.36,12.98,6.77,29.92,15.06,43.36,20.08,2.75,1.02,7.69,1.53,10.77,2.9,24.03-27.36,40.97-63,46.9-99.08,11.24-68.31-8.82-132.24-52.2-184.45-1.83-2.2-10.83-10.82-11.39-12.18-.26-.62.6-10.25.46-12.59-.25-4.31-1.63-8.97-1.65-13.35,33.12,27.81,59.94,67.1,73.84,108.27,52.87,156.66-66.06,313.95-229.98,310.29-147.92-3.31-258.27-130.6-243.71-277.71,7.4-74.75,54.49-143.41,119.95-178.98l-13.11,19.74c-4.69,16.1-13.19,20.52-24.21,30.95-72.18,68.36-84.73,181.23-36.92,267.33,1.3,2.34,7.63,13.85,9.6,13.65.5-.05,6.75-2.94,7.89-3.49,5.16-2.49,12.83-8.06,17.77-9.81,1.05-.37,2.14-.54,3.25-.34,9.06,35.58,28.86,72.05,57.25,95.67,2.55,2.12,5.82,3.8,8.13,5.66,1,.8.7,2.56,1.98,2.47.19-2.53-2.75-3.2-4.05-4.69-20.9-24.06-38.94-48.86-50.67-78.89-1.97-5.05-6.4-15.85-6.89-20.75-.22-2.16.24-3.44.99-5.37,2.39-6.12,8.4-17.11,11.81-23.07,6.07-10.57,11.11-16.85,24.43-17.34-.74-3.99,2.39-23.06,1.21-25.14-.76-1.34-6.4-3.23-8.39-4.5-20.54-13.08-35.21-53.6-36.57-77-.94-16.13-.41-33.84,16.25-41.5.75-5.04-.87-10.48-.88-15.24-.03-13.27-.64-29.28.85-42.22,11.1-96.38,155.13-142.29,229.03-87.49ZM324.93,332.15c3.4,3.24,7.1,6.06,9.86,10-11.55-29.93-51.04-38.74-79.91-34.05-.19,1.42,1.84.76,2.83.8,4.77.2,9.79-.35,14.51.1,19.32,1.84,38.86,9.93,52.71,23.14ZM343.82,315.7c-4.09-2.75-12.03-6.67-16.73-8.02-.87-.25-4.05-1.29-4.06.4,16.66,5.81,29.07,18.61,39.35,32.44-2.67-7.58-7.15-14.73-12.97-20.28-1.14-1.09-4.32-3.69-5.58-4.55ZM294.62,330.82c-15.86-4.3-32.1-7.9-48.66-7.3l16.42,3.29c7.79,2.31,19.55,4.09,28.61,4.8.89.07,3.78.65,3.63-.79ZM217.15,332.43v.81c.53-.27.53-.54,0-.81ZM258.12,342.17c-6.71-1.15-13.64-1.44-20.31-2.82-6.93-1.43-12.74-4.38-19.44-6.1,4.66,4.24,12.59,6.74,18.66,8.5,3.12.91,6.12.63,8.39,1.21.68.17.6,1.08.54,1.63,1.56.31.03-1.92,1.6-1.61-.36,2.92,1.69.89,3.66.8.8-.04,9.56.56,6.9-1.61ZM361.96,678.83c20.21-7.79,25.31-35.48,32.65-53.74,15.62-38.84,29.56-66.08,28.8-109.7-.51-28.92.21-62.98-8.32-90.47-5.99-19.29-25.75-64.71-48.07-67.94-8.65-1.25-17.32,2.7-23.23,2-1.25-.15-8.14-4.62-10.49-5.6-22.79-9.44-44.93-.42-67.58.85-22.23,1.25-39.45-5.8-60.27,6.26-25.96,15.04-44.89,39.06-59.14,65.05l-.04,29.69c.49,1.44,7.96,3.19,10.2,4.41,10.42,5.68,12.94,18.76,15.65,29.37l-10.52-14.21c-7.49-8.74-20.43-11.51-27.61-.8-12.59,18.78,5.64,70.08,19.13,86.35,7.45,8.98,18.11,10.48,24.06-.99.91-1.76-.26-4.41,2.25-3.83,3.74,28.71,14.78,55.62,34.12,77.23,3.33,3.72,14.99,15.29,19.03,16.86.99.39,1.59-.2,1.19-1.19-.78-1.94-3.32-5.02-4.43-7.74-.26-.63-2.15-4.04-.44-4.03,6.14,9.2,13.62,19.14,24.33,23.12-2.11-2.95-3.19-6.58-3.64-10.13,6.69,10.13,16.85,16.94,26.78,23.5,1.16-.64.06-2.09-.39-2.85-2.2-3.73-6.65-7.49-5.3-12.55,6.32,8.77,15.21,17.28,25.01,22.04,1.82.89,5.35,2.62,7.03,1.89-2.86-2.53-5.35-6.2-5.67-10.14l10.42,7.82c1.56.13,6.54,3.54,6.97,3.59,7.75.94,15.08.61,22.1-3.16,2.27-1.22,5.2-4.48,6.35-5.01.35-.16,1.33-.21,1.2.4l-4.86,6.89c8.78.3,17.45-2.1,23.94-8.1l-1.22,4.86ZM411.85,366.5v.81c.53-.27.53-.54,0-.81ZM426.04,383.54c-.28-7.94-5.94-13.42-12.97-16.22,2.14,2.55,5.29,5.12,7.28,7.72,2.14,2.81,3.17,6.2,5.69,8.5ZM173.75,371.38c-.7-.74-4.15,3.34-5.28,3.23-7.03,6.44-14.22,12.84-17.85,21.9,5.62-6.11,12.38-11.65,17.87-17.82.74-.83,5.8-6.73,5.26-7.31ZM421.98,393.27c1.28-6.95-7.62-15.18-13.78-17.02,1.38,2.79,4.47,1.64,4.84,5.26l8.94,11.77ZM201.11,630.31c-2.2-2.88-7.34-6.47-8.84-10.97l-13.64-28.12c-.92,9.58-2.5,19.21-3.25,28.8-.98,12.53-2.32,17.94,3.91,29.34,19.55,35.77,56.27,51.39,84.93,76.5,10.12,8.86,17.81,20.42,25.87,30.92,1.08,1.41,9.81,14.55,11.01,13.72l40.56-61.26c-13.26,3.8-28.68,7.19-42.15,2.42-25.94-9.18-69.2-46.17-88.05-66.9-4.25-4.67-7.07-10.16-10.35-14.46ZM392.8,754.27c1.21-.2,1.58-1.56,1.88-2.57,1.41-4.82.84-20.43.58-26.26-.41-9.08-2.02-18.23-3.69-27.15-.05,18.64-3.18,37.67,1.23,55.98ZM252.36,731.65c-.18-.27-5.22-2.55-5.97-2.57-9.84-.29-18.08,18.95-22.91,25.8l-8.35,11.56c11.09-3.63,15.37-15.9,22.69-23.95,3.59-3.95,5.97-5.71,10.95-7.73,1.68-.68,5.32-.49,3.6-3.12ZM369.57,745.05c-3.54-3.55-6.63-6.55-12.19-6.94-7.36-.52-16.31,5.78-18.13,12.93,14.71-10.64,27.59-6.98,38.53,6.47-1-5.05-4.69-8.92-8.21-12.46ZM217.55,773.74v-4.05s-.79,0-.79,0c-.05,1.72-1.44,3.45.79,4.05ZM220.8,771.32c-1.14-.58-2.16.51-1.61.79,1.14.58,2.16-.51,1.61-.79Z"></path><path class="cls-2" d="M247.57,589.19c.02.36,2.8,3.29-.39,1.2-.58-1.06-1.28-2.09-1.67-3.24-.81-2.4-1.93-6.25-2.04-9.27-.77-22.43,14.42-23.8,29.5-33.85,13.02-8.67,23.21-20.75,35.91-29.81,2.95-.02.27.72.21.82-3.87,6.9-8.19,16.87,1.52,21.64,4.6,2.26,5.85-.09,9.61-.55,11.77-1.45,16.39,8.76,27.52,8.92,7.17.1,14.3-6.36,15-13.44.59-5.92-2.08-15.52-3.82-21.33-3.08-10.25-13.64-29.44-11.41-39.35.71-3.16,9.52-7.95,10.37-7.06,1.54,1.61-6.32,6.42-1.99,9.76,8.38-5.29,12.03-12.1,23.48-11.37,14.51.93,20.17,8.93,29.34,18.52l10.02,2.95c-6.69,1.83-13.26,1.77-19.42-1.67-2.04-1.14-10.23-8.5-11.01-8.45-1.68.11-.25,4.47-.76,6.48-1.34,5.3-5.79,6.12-10.63,5.71-7.63-.65-7.49-7.27-8.1-7.37-2.68-.44-3.93,1.76-6.01,2.93-1.88,1.06-4.67.63-4.71,3.31-.04,2.4,4.92,11.53,6.09,14.67,2.29,6.12,4.3,14.42,6.83,19.96s16.01,16.53,20.9,22.88c7.86,10.21,14.91,23.48,7.74,36.06-.59-18.56-11.7-33.97-26.75-43.82-7.41,15.97-17.16,24.11-35.48,18.44-4.33-1.34-10.69-6.28-13.57-6.73-2.42-.38-6.98.78-10.23.5-7.9-.68-11.48-5.84-16.19-11.37-4.33,3.86-9.15,8.81-13.92,12.02-9.13,6.15-24.95,10.23-31.38,19-.88,1.2-4.59,8.19-4.59,9.11,0,4.57-.21,9.23,0,13.79Z"></path><path class="cls-2" d="M323.83,570.93c8.05.14,15.34-3,21.89-7.3.65,3.71-2.18,5.52-4.05,8.1,1.98-.71,4.63.87,6.02.83.55-.01.49-1.38,1.02-1.64,5.1-2.42,9.79-3.83,14.04-8.11.52,3.29-1.51,4.96-3.24,7.29,3.48,2.08,16.34-5.74,17.32-5.55.37.07,5.69,3.78,6.25,4.3,4.22,3.88,6,10.23,5.63,15.86l-7.31-6.89c-1.02-.57-2.26-.75-3.27-.04-.93.64-4.2,10.54-5.63,13.03-19.89,34.54-90.82,22.89-105.48-12.58-4.45.5-6.32,4.88-8.68,7.9-2.13,2.72-2.48-1.09-2.66-3.44-.55-7.26,4.71-13.32,11.97-14.05,3.81-.38,6.7.85,11.56-.53,3.28-.93,7.78-4.55,10.14-5.28,3.95-1.21-3.18,6.87-3.67,7.28,4.54.29,8.48,0,12.8-1.38,3.62-1.16,6.46-3.7,9.91-5.09.74.76-2.84,6.25-4.05,6.9,8.51.65,16.7-3.31,22.7-9.33.96,3.93-2.84,6.11-3.23,9.73ZM365.2,579.06c-29.84,5.5-60.37,1.46-90.05-3.24,4.41,5.95,9.49,9.65,16.23,12.56,16.32,7.06,51.81,11.65,66.54.02,2.93-2.31,5.88-5.88,7.28-9.34Z"></path><path class="cls-2" d="M295.15,431.69c3.75,3.61,5.64,9.14,5.15,14.31-1.22-.6-2.22-.82-3.6-.86-13.6-.37-41.89,2.81-54.03,8.53-4.67,2.2-8.77,5.63-12.94,8.55,1.79-15.75,9.82-26.01,24.04-32.33,11.23-5,31.79-7.43,41.37,1.79Z"></path><path class="cls-2" d="M303.55,479.26c-.57.7-6.8-4.66-8.1-5.28-1.39-.66-8.15-2.81-8.93-2.02,3.51,11.73-15.75,16.81-20.18,8.42-1.52-2.87.36-4.61-2.98-4.41-1.18.07-7.35,7.54-12.48,8.61-2.43.51-9.8.34-11.4-1.27-1.46-1.47.49-1.34,1.2-1.62,9.64-3.77,8.85-7.89,15.81-13.4,10.22-8.08,30.24-11.65,41.97-5.42,8.62,4.58,5.52,8.06,5.1,16.39Z"></path><path class="cls-2" d="M403.61,435.17c1.22.86,2.25.76,3.82,2.28,4.92,4.76,6.75,13.31,6.44,19.92-6-.44-11.04-4.4-16.86-6.26-10.91-3.48-23.07-4.73-34.24-1.86-.59-7.87.5-15.72,9.06-18.1,7.6-2.11,22.66-2.18,29.67,1.69,1.29.71,1.44,1.88,2.1,2.34Z"></path><path class="cls-2" d="M165.46,513.17c-.2.35-2.19.96-3.09,2.17-3.98,5.36,2.24,11.1,3.84,16.49.98,3.31,1.86,8.2,1.04,11.52l-3.24-6.07c-7.3-6.73-15.31-11.07-14.55-22.6.28-4.2,4.12-8.66,3.96-12.22-.13-2.86-4.06-9.36-7.49-8.48-6,1.55-6.05,15.97-5.45,20.98-1.12,1.59-3.12-8.99-3.22-10.15-.67-7.62-1.16-20.27,8.09-22.76,4.78-1.28,12.36,7.33,14.77,11.26,2.29,3.73,7.56,16.08,5.35,19.87Z"></path><path class="cls-2" d="M359.52,617.99c.16,1.64-1.06,2.9-2.01,4.07-11.52,14.01-41.97,11.38-53.96-1.23l19.97,4.36c7.18.72,14.34.63,21.41-1.11,5.14-1.26,9.82-3.95,14.59-6.09Z"></path><path class="cls-2" d="M185.92,390.04c-3.68,10.54-12.63,22.19-20.84,29.81-.9.84-.52,1.47-2.68,1,6.68-9.57,11.59-21.58,20.68-29.2.91-.76,1.32-1.97,2.84-1.61Z"></path><path class="cls-2" d="M294.62,490.63c.95.82-3.02,4.27-3.67,4.84-6.65,5.82-15.26,7.78-23.9,5.69l11.09-3.91c2.56-1.08,14.69-8.17,16.49-6.63Z"></path><path class="cls-2" d="M162.4,446.81l16.21-26.77c-.5,9.2-3.84,17.58-10.97,23.5-.75.62-4.67,3.84-5.25,3.26Z"></path><path class="cls-2" d="M391.97,498.74c-2.86,2.93-9.25,2.72-13.02,2.06-3.63-.64-10.78-3.36-10.5-7.75,7.83,1.8,15.25,6.07,23.52,5.68Z"></path><path class="cls-2" d="M333.57,454.93l.75-3.7,7.35-14.14c.37,6.13-.93,16.33-8.1,17.84Z"></path><path class="cls-2" d="M230.54,480.89c-1.52,5.43-13.56,5.96-14.6,0h14.6Z"></path><path class="cls-2" d="M224.86,575.8l3.24,18.66c-4.51-4.2-5.61-11.55-4.86-17.46.14-1.12.61-2.54,1.62-1.21Z"></path><path class="cls-2" d="M278.4,649.62c-2.75,2.17-10.37-9.98-8.92-12.97,3.77,3.32,6.36,8.62,8.92,12.97Z"></path><path class="cls-2" d="M291.37,646.39l7.31,11.35c-5.44-.01-8.01-6.73-8.92-11.35h1.61Z"></path><path class="cls-2" d="M258.93,643.94c-5.47-1.78-7.54-8.59-8.1-13.79l8.1,13.79Z"></path><path class="cls-2" d="M238.65,626.91c-2.22,2.37-8.06-10.72-6.48-12.97,1.47.88,2.61,3.56,3.4,5.11.59,1.15,3.61,7.3,3.08,7.87Z"></path><path class="cls-2" d="M370.07,653.68l4.45-13.78c1.7,1.08.74,1.85.69,3.04-.14,3.79-.57,9.82-5.15,10.74Z"></path><path class="cls-2" d="M258.12,622.04c-.7.82-2.91-1.87-3.19-2.26-2.47-3.52-3.59-7.13-3.29-11.52,1.41.21,1.38,1.65,1.84,2.61.65,1.35,5.03,10.72,4.64,11.18Z"></path><path class="cls-2" d="M220.8,622.04c-4.61-1.1-6.64-7.2-6.48-11.35,1.69.65,6.95,10.84,6.48,11.35Z"></path><path class="cls-2" d="M383.04,636.64c-1.15.98-2.23-.7-1.45-1.85l3.89-10.3c1.57,2.41-.77,10.75-2.44,12.16Z"></path><path class="cls-2" d="M316.06,658.21c.88,1.04,2.5,1.98,2.9,3.58-1.52,1.33-8.27-5.64-7.29-8.1,2.02.93,3.04,2.94,4.39,4.53Z"></path><path class="cls-2" d="M303.14,618.8c.53.27.53.54,0,.81v-.81Z"></path></g></g><g><g><g><path class="cls-4" d="M579.06,504.18c-1.59,1.92-2.23,3.51-2.23,4.47,0,1.91,1.91,2.87,5.74,2.87h64.43c5.1,0,7.65,2.23,7.65,6.7v51.99c0,4.46-2.55,6.7-7.34,6.7h-157.88c-4.46,0-6.7-2.23-6.7-6.7v-42.1c0-4.79.64-12.44,3.51-16.59l63.47-85.16c1.28-1.59,1.91-3.19,1.91-4.47,0-.32.95-2.87-5.1-2.87h-55.82c-2.87,0-4.79-.96-5.74-2.55-.64-1.28-.96-2.55-.96-4.15v-51.99c0-4.46,2.23-6.7,6.7-6.7h148.95c2.87.32,4.14.64,4.14.96l1.91,2.55c.32,2.23.64,2.23.64,3.19v42.42c-.32,5.1-1.28,11.48-3.51,16.27l-63.79,85.16Z"></path><path class="cls-4" d="M766.92,523.96c11.8,0,28.7-4.46,40.51-11.8,1.6-.96,2.87-1.59,4.46-1.59,2.23,0,3.83,1.28,5.42,3.83l22.01,36.36c.96.96,1.28,2.23,1.28,3.19,0,1.59-.95,2.87-2.55,4.46-17.86,14.35-48.8,21.69-75.27,21.69-57.09,0-95.05-32.85-95.05-82.93s37.64-82.93,94.09-82.93c50.07,0,76.55,25.2,78.14,74.64,0,2.87-1.59,5.1-4.79,6.06l-77.18,21.37c-6.38,1.59-5.11,3.19-5.11,3.51,0,.96,1.28,1.91,4.15,2.87s6.06,1.28,9.89,1.28ZM737.26,484.73c-.32.96-.32,1.6-.32,2.23,0,1.28.64,1.28,1.6,1.28.64,0,1.59,0,2.55-.32l24.88-6.7c2.23-.64,3.51-1.59,3.51-2.87,0-.96-.64-1.91-1.91-3.19-3.19-3.19-7.34-4.78-12.76-4.78-9.25,0-15.31,4.78-17.54,14.35Z"></path><path class="cls-4" d="M911.71,421.57c.32,0,.64,0,1.28-.32,7.34-4.78,20.73-7.02,36.04-7.02,53.59,0,81.97,31.26,81.97,81.33s-31.26,84.52-81.97,84.52c-6.38,0-11.48-.32-15.63-1.28-1.28-.32-2.55-.32-3.51-.32-3.51,0-6.06.32-6.06,7.65v47.84c0,4.46-2.23,6.7-7.02,6.7h-58.05c-4.47,0-6.7-2.23-6.7-6.7v-210.19c0-4.15,2.23-6.38,6.38-6.38h49.44c1.91,0,2.87.96,2.87,2.87,0,.96.32,1.28.96,1.28ZM959.24,498.12c0-11.48-8.3-21.37-19.46-21.37s-19.14,9.89-19.14,21.37c0,14.99,7.98,22.65,19.14,22.65s19.46-7.65,19.46-22.65Z"></path></g><g><g><path class="cls-2" d="M499.57,605.31c-14.46,0-24.96-10.49-24.96-24.95v-42.1c0-7.86,1.17-18.92,6.76-26.98.12-.17.24-.34.37-.51l47.2-63.33h-28.1c-9.25,0-17.06-4.17-21.4-11.43-.24-.4-.46-.8-.67-1.21-1.94-3.88-2.89-7.91-2.89-12.31v-51.99c0-14.46,10.49-24.95,24.96-24.95h148.95c.67,0,1.35.04,2.02.11,10.33,1.15,15.48,5.43,18.02,9.87l.63.83c1.8,2.41,2.99,5.22,3.44,8.19.42,1.48.85,3.42.85,5.95v42.42c0,.38-.01.75-.04,1.13-.38,6.18-1.59,15.16-5.18,22.85-.53,1.14-1.18,2.22-1.94,3.23l-47.42,63.3h36.95c15.25,0,25.91,10.26,25.91,24.95v51.99c0,14.46-10.76,24.95-25.59,24.95h-157.88Z"></path><path class="cls-2" d="M772.91,608.49c-32.52,0-60.5-9.4-80.92-27.17-20.88-18.18-32.38-44.46-32.38-74.01,0-60.52,45.15-101.18,112.35-101.18,60.24,0,94.47,32.78,96.39,92.3,0,.2,0,.39,0,.59,0,11.06-6.99,20.31-17.8,23.55-.12.04-2.53.7-2.53.7l16.39,27.07c2.94,3.91,4.58,8.77,4.58,13.74,0,9.48-5.95,15.43-7.91,17.38-.47.46-.95.9-1.47,1.31-23.59,18.96-60.26,25.71-86.71,25.71Z"></path><path class="cls-2" d="M868.91,669.1c-14.46,0-24.96-10.49-24.96-24.95v-210.19c0-14.27,10.36-24.63,24.63-24.63h49.44c2.58,0,5.02.42,7.27,1.19,9.07-2.91,20.4-4.38,33.88-4.38,61.82,0,100.23,38.16,100.23,99.59s-39.34,102.78-100.23,102.78c-2.51,0-4.81-.05-6.94-.15v35.8c0,14.69-10.39,24.95-25.27,24.95h-58.05ZM949.93,512.66c.24,0,.42-.01.56-.03.23-.54.64-1.86.64-4.36,0-1.74-.78-2.78-1.14-3.07-.35.38-.95,1.43-.95,3.07,0,2.26.32,3.68.58,4.38.09,0,.19,0,.31,0ZM949.89,505.13"></path></g><g><path class="cls-2" d="M497.55,603.28c-14.46,0-24.96-10.49-24.96-24.95v-42.1c0-7.86,1.17-18.92,6.76-26.98.12-.17.24-.34.37-.51l47.2-63.33h-28.1c-9.25,0-17.06-4.17-21.4-11.43-.24-.4-.46-.8-.67-1.21-1.94-3.88-2.89-7.91-2.89-12.31v-51.99c0-14.46,10.49-24.95,24.96-24.95h148.95c.67,0,1.35.04,2.02.11,10.33,1.15,15.48,5.43,18.02,9.87l.63.83c1.8,2.41,2.99,5.22,3.44,8.19.42,1.48.85,3.42.85,5.95v42.42c0,.38-.01.75-.04,1.13-.38,6.18-1.59,15.16-5.18,22.85-.53,1.14-1.18,2.22-1.94,3.23l-47.42,63.3h36.95c15.25,0,25.91,10.26,25.91,24.95v51.99c0,14.46-10.76,24.95-25.59,24.95h-157.88Z"></path><path class="cls-2" d="M770.88,606.47c-32.52,0-60.5-9.4-80.92-27.17-20.88-18.18-32.38-44.46-32.38-74.01,0-60.52,45.15-101.18,112.35-101.18,60.24,0,94.47,32.78,96.39,92.3,0,.2,0,.39,0,.59,0,11.06-6.99,20.31-17.8,23.55-.12.04-2.53.7-2.53.7l16.39,27.07c2.94,3.91,4.58,8.77,4.58,13.74,0,9.48-5.95,15.43-7.91,17.38-.47.46-.95.9-1.47,1.31-23.59,18.96-60.26,25.71-86.71,25.71Z"></path><path class="cls-2" d="M866.88,667.07c-14.46,0-24.96-10.49-24.96-24.95v-210.19c0-14.27,10.36-24.63,24.63-24.63h49.44c2.58,0,5.02.42,7.27,1.19,9.07-2.91,20.4-4.38,33.88-4.38,61.82,0,100.23,38.16,100.23,99.59s-39.34,102.78-100.23,102.78c-2.51,0-4.81-.05-6.94-.15v35.8c0,14.69-10.39,24.95-25.27,24.95h-58.05ZM947.9,510.63c.24,0,.42-.01.56-.03.23-.54.64-1.86.64-4.36,0-1.74-.78-2.78-1.14-3.07-.35.38-.95,1.43-.95,3.07,0,2.26.32,3.68.58,4.38.09,0,.19,0,.31,0ZM947.86,503.11"></path></g><g><path class="cls-2" d="M495.52,601.25c-14.46,0-24.96-10.49-24.96-24.95v-42.1c0-7.86,1.17-18.92,6.76-26.98.12-.17.24-.34.37-.51l47.2-63.33h-28.1c-9.25,0-17.06-4.17-21.4-11.43-.24-.4-.46-.8-.67-1.21-1.94-3.88-2.89-7.91-2.89-12.31v-51.99c0-14.46,10.49-24.95,24.96-24.95h148.95c.67,0,1.35.04,2.02.11,10.33,1.15,15.48,5.43,18.02,9.87l.63.83c1.8,2.41,2.99,5.22,3.44,8.19.42,1.48.85,3.42.85,5.95v42.42c0,.38-.01.75-.04,1.13-.38,6.18-1.59,15.16-5.18,22.85-.53,1.14-1.18,2.22-1.94,3.23l-47.42,63.3h36.95c15.25,0,25.91,10.26,25.91,24.95v51.99c0,14.46-10.76,24.95-25.59,24.95h-157.88Z"></path><path class="cls-2" d="M768.85,604.44c-32.52,0-60.5-9.4-80.92-27.17-20.88-18.18-32.38-44.46-32.38-74.01,0-60.52,45.15-101.18,112.35-101.18,60.24,0,94.47,32.78,96.39,92.3,0,.2,0,.39,0,.59,0,11.06-6.99,20.31-17.8,23.55-.12.04-2.53.7-2.53.7l16.39,27.07c2.94,3.91,4.58,8.77,4.58,13.74,0,9.48-5.95,15.43-7.91,17.38-.47.46-.95.9-1.47,1.31-23.59,18.96-60.26,25.71-86.71,25.71Z"></path><path class="cls-2" d="M864.85,665.04c-14.46,0-24.96-10.49-24.96-24.95v-210.19c0-14.27,10.36-24.63,24.63-24.63h49.44c2.58,0,5.02.42,7.27,1.19,9.07-2.91,20.4-4.38,33.88-4.38,61.82,0,100.23,38.16,100.23,99.59s-39.34,102.78-100.23,102.78c-2.51,0-4.81-.05-6.94-.15v35.8c0,14.69-10.39,24.95-25.27,24.95h-58.05ZM945.87,508.6c.24,0,.42-.01.56-.03.23-.54.64-1.86.64-4.36,0-1.74-.78-2.78-1.14-3.07-.35.38-.95,1.43-.95,3.07,0,2.26.32,3.68.58,4.38.09,0,.19,0,.31,0ZM945.83,501.08"></path></g><g><path class="cls-2" d="M493.49,599.22c-14.46,0-24.96-10.49-24.96-24.95v-42.1c0-7.86,1.17-18.92,6.76-26.98.12-.17.24-.34.37-.51l47.2-63.33h-28.1c-9.25,0-17.06-4.17-21.4-11.43-.24-.4-.46-.8-.67-1.21-1.94-3.88-2.89-7.91-2.89-12.31v-51.99c0-14.46,10.49-24.95,24.96-24.95h148.95c.67,0,1.35.04,2.02.11,10.33,1.15,15.48,5.43,18.02,9.87l.63.83c1.8,2.41,2.99,5.22,3.44,8.19.42,1.48.85,3.42.85,5.95v42.42c0,.38-.01.75-.04,1.13-.38,6.18-1.59,15.16-5.18,22.85-.53,1.14-1.18,2.22-1.94,3.23l-47.42,63.3h36.95c15.25,0,25.91,10.26,25.91,24.95v51.99c0,14.46-10.76,24.95-25.59,24.95h-157.88Z"></path><path class="cls-2" d="M766.83,602.41c-32.52,0-60.5-9.4-80.92-27.17-20.88-18.18-32.38-44.46-32.38-74.01,0-60.52,45.15-101.18,112.35-101.18,60.24,0,94.47,32.78,96.39,92.3,0,.2,0,.39,0,.59,0,11.06-6.99,20.31-17.8,23.55-.12.04-2.53.7-2.53.7l16.39,27.07c2.94,3.91,4.58,8.77,4.58,13.74,0,9.48-5.95,15.43-7.91,17.38-.47.46-.95.9-1.47,1.31-23.59,18.96-60.26,25.71-86.71,25.71Z"></path><path class="cls-2" d="M862.83,663.01c-14.46,0-24.96-10.49-24.96-24.95v-210.19c0-14.27,10.36-24.63,24.63-24.63h49.44c2.58,0,5.02.42,7.27,1.19,9.07-2.91,20.4-4.38,33.88-4.38,61.82,0,100.23,38.16,100.23,99.59s-39.34,102.78-100.23,102.78c-2.51,0-4.81-.05-6.94-.15v35.8c0,14.69-10.39,24.95-25.27,24.95h-58.05ZM943.84,506.57c.24,0,.42-.01.56-.03.23-.54.64-1.86.64-4.36,0-1.74-.78-2.78-1.14-3.07-.35.38-.95,1.43-.95,3.07,0,2.26.32,3.68.58,4.38.09,0,.19,0,.31,0ZM943.8,499.05"></path></g><g><path class="cls-2" d="M491.46,597.19c-14.46,0-24.96-10.49-24.96-24.95v-42.1c0-7.86,1.17-18.92,6.76-26.98.12-.17.24-.34.37-.51l47.2-63.33h-28.1c-9.25,0-17.06-4.17-21.4-11.43-.24-.4-.46-.8-.67-1.21-1.94-3.88-2.89-7.91-2.89-12.31v-51.99c0-14.46,10.49-24.95,24.96-24.95h148.95c.67,0,1.35.04,2.02.11,10.33,1.15,15.48,5.43,18.02,9.87l.63.83c1.8,2.41,2.99,5.22,3.44,8.19.42,1.48.85,3.42.85,5.95v42.42c0,.38-.01.75-.04,1.13-.38,6.18-1.59,15.16-5.18,22.85-.53,1.14-1.18,2.22-1.94,3.23l-47.42,63.3h36.95c15.25,0,25.91,10.26,25.91,24.95v51.99c0,14.46-10.76,24.95-25.59,24.95h-157.88Z"></path><path class="cls-2" d="M764.8,600.38c-32.52,0-60.5-9.4-80.92-27.17-20.88-18.18-32.38-44.46-32.38-74.01,0-60.52,45.15-101.18,112.35-101.18,60.24,0,94.47,32.78,96.39,92.3,0,.2,0,.39,0,.59,0,11.06-6.99,20.31-17.8,23.55-.12.04-2.53.7-2.53.7l16.39,27.07c2.94,3.91,4.58,8.77,4.58,13.74,0,9.48-5.95,15.43-7.91,17.38-.47.46-.95.9-1.47,1.31-23.59,18.96-60.26,25.71-86.71,25.71Z"></path><path class="cls-2" d="M860.8,660.98c-14.46,0-24.96-10.49-24.96-24.95v-210.19c0-14.27,10.36-24.63,24.63-24.63h49.44c2.58,0,5.02.42,7.27,1.19,9.07-2.91,20.4-4.38,33.88-4.38,61.82,0,100.23,38.16,100.23,99.59s-39.34,102.78-100.23,102.78c-2.51,0-4.81-.05-6.94-.15v35.8c0,14.69-10.39,24.95-25.27,24.95h-58.05ZM941.81,504.54c.24,0,.42-.01.56-.03.23-.54.64-1.86.64-4.36,0-1.74-.78-2.78-1.14-3.07-.35.38-.95,1.43-.95,3.07,0,2.26.32,3.68.58,4.38.09,0,.19,0,.31,0ZM941.78,497.02"></path></g><g><path class="cls-2" d="M489.43,595.16c-14.46,0-24.96-10.49-24.96-24.95v-42.1c0-7.86,1.17-18.92,6.76-26.98.12-.17.24-.34.37-.51l47.2-63.33h-28.1c-9.25,0-17.06-4.17-21.4-11.43-.24-.4-.46-.8-.67-1.21-1.94-3.88-2.89-7.91-2.89-12.31v-51.99c0-14.46,10.49-24.95,24.96-24.95h148.95c.67,0,1.35.04,2.02.11,10.33,1.15,15.48,5.43,18.02,9.87l.63.83c1.8,2.41,2.99,5.22,3.44,8.19.42,1.48.85,3.42.85,5.95v42.42c0,.38-.01.75-.04,1.13-.38,6.18-1.59,15.16-5.18,22.85-.53,1.14-1.18,2.22-1.94,3.23l-47.42,63.3h36.95c15.25,0,25.91,10.26,25.91,24.95v51.99c0,14.46-10.76,24.95-25.59,24.95h-157.88Z"></path><path class="cls-2" d="M762.77,598.35c-32.52,0-60.5-9.4-80.92-27.17-20.88-18.18-32.38-44.46-32.38-74.01,0-60.52,45.15-101.18,112.35-101.18,60.24,0,94.47,32.78,96.39,92.3,0,.2,0,.39,0,.59,0,11.06-6.99,20.31-17.8,23.55-.12.04-2.53.7-2.53.7l16.39,27.07c2.94,3.91,4.58,8.77,4.58,13.74,0,9.48-5.95,15.43-7.91,17.38-.47.46-.95.9-1.47,1.31-23.59,18.96-60.26,25.71-86.71,25.71Z"></path><path class="cls-2" d="M858.77,658.95c-14.46,0-24.96-10.49-24.96-24.95v-210.19c0-14.27,10.36-24.63,24.63-24.63h49.44c2.58,0,5.02.42,7.27,1.19,9.07-2.91,20.4-4.38,33.88-4.38,61.82,0,100.23,38.16,100.23,99.59s-39.34,102.78-100.23,102.78c-2.51,0-4.81-.05-6.94-.15v35.8c0,14.69-10.39,24.95-25.27,24.95h-58.05ZM939.78,502.51c.24,0,.42-.01.56-.03.23-.54.64-1.86.64-4.36,0-1.74-.78-2.78-1.14-3.07-.35.38-.95,1.43-.95,3.07,0,2.26.32,3.68.58,4.38.09,0,.19,0,.31,0ZM939.75,494.99"></path></g></g><g><path class="cls-1" d="M579.06,504.18c-1.59,1.92-2.23,3.51-2.23,4.47,0,1.91,1.91,2.87,5.74,2.87h64.43c5.1,0,7.65,2.23,7.65,6.7v51.99c0,4.46-2.55,6.7-7.34,6.7h-157.88c-4.46,0-6.7-2.23-6.7-6.7v-42.1c0-4.79.64-12.44,3.51-16.59l63.47-85.16c1.28-1.59,1.91-3.19,1.91-4.47,0-.32.95-2.87-5.1-2.87h-55.82c-2.87,0-4.79-.96-5.74-2.55-.64-1.28-.96-2.55-.96-4.15v-51.99c0-4.46,2.23-6.7,6.7-6.7h148.95c2.87.32,4.14.64,4.14.96l1.91,2.55c.32,2.23.64,2.23.64,3.19v42.42c-.32,5.1-1.28,11.48-3.51,16.27l-63.79,85.16Z"></path><path class="cls-1" d="M766.92,523.96c11.8,0,28.7-4.46,40.51-11.8,1.6-.96,2.87-1.59,4.46-1.59,2.23,0,3.83,1.28,5.42,3.83l22.01,36.36c.96.96,1.28,2.23,1.28,3.19,0,1.59-.95,2.87-2.55,4.46-17.86,14.35-48.8,21.69-75.27,21.69-57.09,0-95.05-32.85-95.05-82.93s37.64-82.93,94.09-82.93c50.07,0,76.55,25.2,78.14,74.64,0,2.87-1.59,5.1-4.79,6.06l-77.18,21.37c-6.38,1.59-5.11,3.19-5.11,3.51,0,.96,1.28,1.91,4.15,2.87s6.06,1.28,9.89,1.28ZM737.26,484.73c-.32.96-.32,1.6-.32,2.23,0,1.28.64,1.28,1.6,1.28.64,0,1.59,0,2.55-.32l24.88-6.7c2.23-.64,3.51-1.59,3.51-2.87,0-.96-.64-1.91-1.91-3.19-3.19-3.19-7.34-4.78-12.76-4.78-9.25,0-15.31,4.78-17.54,14.35Z"></path><path class="cls-1" d="M911.71,421.57c.32,0,.64,0,1.28-.32,7.34-4.78,20.73-7.02,36.04-7.02,53.59,0,81.97,31.26,81.97,81.33s-31.26,84.52-81.97,84.52c-6.38,0-11.48-.32-15.63-1.28-1.28-.32-2.55-.32-3.51-.32-3.51,0-6.06.32-6.06,7.65v47.84c0,4.46-2.23,6.7-7.02,6.7h-58.05c-4.47,0-6.7-2.23-6.7-6.7v-210.19c0-4.15,2.23-6.38,6.38-6.38h49.44c1.91,0,2.87.96,2.87,2.87,0,.96.32,1.28.96,1.28ZM959.24,498.12c0-11.48-8.3-21.37-19.46-21.37s-19.14,9.89-19.14,21.37c0,14.99,7.98,22.65,19.14,22.65s19.46-7.65,19.46-22.65Z"></path></g></g><g><g><path class="cls-4" d="M528.51,700.91v-54.1h17.13v56.72c0,4.94.58,10.36,6.1,10.36s6-5.42,6-10.36v-56.72h17.23v54.1c0,16.45-5.23,25.45-23.23,25.45s-23.23-9-23.23-25.45Z"></path><path class="cls-4" d="M586.1,646.81h12.19l16.07,37.75v-37.75h14.33v78.4h-11.71l-16.07-40.65v40.65h-14.81v-78.4Z"></path><path class="cls-4" d="M640.6,646.81h17.33v78.4h-17.33v-78.4Z"></path><path class="cls-4" d="M669.73,646.81h33.87v11.71h-16.55v19.74h14.42v12.1h-14.42v34.84h-17.33v-78.4Z"></path><path class="cls-4" d="M710.77,700.52v-29.13c0-16.16,5.9-25.65,23.52-25.65s23.71,9.49,23.71,25.65v29.13c0,16.16-6,25.84-23.71,25.84s-23.52-9.68-23.52-25.84ZM740.29,704.88v-37.75c0-4.65-.58-9.19-6-9.19-5.13,0-5.81,4.55-5.81,9.19v37.75c0,4.45.39,9.19,5.81,9.19s6-4.74,6-9.19Z"></path><path class="cls-4" d="M768.66,646.81h21.58c15.78,0,26.04,4.26,26.04,20.71,0,9.68-1.84,16.07-9.58,19.74l10.74,37.94h-17.9l-8.62-35.13h-4.94v35.13h-17.32v-78.4ZM790.82,680.1c7.26,0,9.39-4.07,9.39-11.03s-2.03-10.65-8.62-10.65h-5.61v21.68h4.84Z"></path><path class="cls-4" d="M827.89,646.81h18.58l8.61,45.59,9.29-45.59h17.9l1.35,78.4h-12.29l-1.45-52.17-9.1,52.17h-10.94l-9.68-52.56-1.16,52.56h-12.48l1.35-78.4Z"></path><path class="cls-4" d="M895.07,646.81h35.23v11.81h-17.9v19.45h13.65v12h-13.65v23.42h18.1v11.71h-35.42v-78.4Z"></path><path class="cls-4" d="M936.69,701.49l14.81-2.22c.19,10.16,2.52,13.94,6.87,13.94,3.58,0,4.35-3,4.35-5.71,0-6.49-3.29-10.36-8.61-14.91l-6.77-5.9c-6-5.03-10.55-10.94-10.55-20.42,0-13.26,8.42-20.52,21.97-20.52,16.74,0,19.16,13.07,19.45,22.26l-14.9,1.84c-.19-6.97-.68-11.42-5.13-11.42-3.19,0-4.64,3.39-4.64,6.1,0,5.81,3,8.9,7.55,12.87l6.49,5.71c6.77,5.81,12.19,12.68,12.19,23.52s-8.03,19.74-20.52,19.74c-14.81,0-21.97-7.45-22.55-24.87Z"></path></g><g><g><path class="cls-2" d="M561.89,752.73c-18,0-39.46-7.23-39.46-41.68v-54.1c0-8.96,7.27-16.23,16.23-16.23h17.13c2.14,0,4.18.41,6.05,1.16,1.87-.75,3.91-1.16,6.05-1.16h17.23c8.96,0,16.23,7.27,16.23,16.23v54.1c0,36.27-24.72,41.68-39.46,41.68Z"></path><path class="cls-2" d="M627.12,751.57c-2.88,0-5.63-.76-8.03-2.13-2.37,1.35-5.11,2.13-8.03,2.13h-14.81c-8.96,0-16.23-7.27-16.23-16.23v-78.4c0-8.96,7.27-16.23,16.23-16.23h12.19c2.88,0,5.63.76,8.03,2.13,2.37-1.35,5.11-2.13,8.03-2.13h14.33c8.96,0,16.23,7.27,16.23,16.23v78.4c0,8.96-7.27,16.23-16.23,16.23h-11.71Z"></path><rect class="cls-2" x="634.51" y="640.72" width="49.78" height="110.85" rx="16.23" ry="16.23"></rect><path class="cls-2" d="M679.88,751.57c-8.96,0-16.23-7.27-16.23-16.23v-78.4c0-8.96,7.27-16.23,16.23-16.23h33.87c8.96,0,16.23,7.27,16.23,16.23v11.71c0,4.37-1.72,8.33-4.53,11.25,1.52,2.47,2.4,5.38,2.4,8.5v12.1c0,8.35-6.31,15.23-14.42,16.13v18.71c0,8.96-7.27,16.23-16.23,16.23h-17.33Z"></path><path class="cls-2" d="M744.43,752.73c-11.95,0-39.74-4.1-39.74-42.07v-29.13c0-37.8,27.79-41.88,39.74-41.88,25.38,0,39.94,15.26,39.94,41.88v29.13c0,26.73-14.56,42.07-39.94,42.07Z"></path><path class="cls-2" d="M809.67,751.57c-2.4,0-4.7-.52-6.77-1.48-2.06.95-4.36,1.48-6.78,1.48h-17.32c-8.96,0-16.23-7.27-16.23-16.23v-78.4c0-8.96,7.27-16.23,16.23-16.23h21.58c36.77,0,42.26,23.14,42.26,36.94,0,5.08,0,16.3-7.32,25.47l7.87,27.79c1.39,4.89.4,10.15-2.67,14.21-3.07,4.06-7.86,6.44-12.94,6.44h-17.9Z"></path><path class="cls-2" d="M881.49,751.57c-1.85,0-3.62-.31-5.28-.88-1.66.57-3.43.88-5.27.88h-10.94c-1.89,0-3.72-.32-5.42-.93-1.7.6-3.52.93-5.42.93h-12.48c-4.35,0-8.52-1.75-11.57-4.85-3.05-3.1-4.73-7.3-4.65-11.66l1.35-78.4c.15-8.85,7.37-15.95,16.23-15.95h18.58c3.28,0,6.37.98,8.95,2.69,2.59-1.71,5.67-2.69,8.95-2.69h17.9c8.85,0,16.07,7.1,16.23,15.95l1.35,78.4c.08,4.35-1.6,8.55-4.65,11.66-3.05,3.1-7.22,4.85-11.57,4.85h-12.29Z"></path><path class="cls-2" d="M905.21,751.57c-8.96,0-16.23-7.27-16.23-16.23v-78.4c0-8.96,7.27-16.23,16.23-16.23h35.23c8.96,0,16.23,7.27,16.23,16.23v11.81c0,5.01-2.27,9.49-5.83,12.46,1.01,2.12,1.58,4.49,1.58,6.99v12c0,3.62-1.18,6.96-3.18,9.65,4.58,2.87,7.63,7.96,7.63,13.77v11.71c0,8.96-7.27,16.23-16.23,16.23h-35.42Z"></path><path class="cls-2" d="M969.38,752.73c-11.25,0-37.55-3.95-38.77-40.56-.18-5.52,2.42-10.54,6.62-13.62-3.53-5.38-6.53-12.68-6.53-22.14,0-21.98,15.35-36.75,38.2-36.75,8.09,0,34.56,2.74,35.67,37.98.17,5.51-2.43,10.51-6.6,13.59,4.54,6.3,8.16,14.59,8.16,25.54,0,20.51-15.8,35.97-36.75,35.97Z"></path></g><g><path class="cls-2" d="M559.86,750.7c-18,0-39.46-7.23-39.46-41.68v-54.1c0-8.96,7.27-16.23,16.23-16.23h17.13c2.14,0,4.18.41,6.05,1.16,1.87-.75,3.91-1.16,6.05-1.16h17.23c8.96,0,16.23,7.27,16.23,16.23v54.1c0,36.27-24.72,41.68-39.46,41.68Z"></path><path class="cls-2" d="M625.09,749.54c-2.88,0-5.63-.76-8.03-2.13-2.37,1.35-5.11,2.13-8.03,2.13h-14.81c-8.96,0-16.23-7.27-16.23-16.23v-78.4c0-8.96,7.27-16.23,16.23-16.23h12.19c2.88,0,5.63.76,8.03,2.13,2.37-1.35,5.11-2.13,8.03-2.13h14.33c8.96,0,16.23,7.27,16.23,16.23v78.4c0,8.96-7.27,16.23-16.23,16.23h-11.71Z"></path><rect class="cls-2" x="632.49" y="638.69" width="49.78" height="110.85" rx="16.23" ry="16.23"></rect><path class="cls-2" d="M677.85,749.54c-8.96,0-16.23-7.27-16.23-16.23v-78.4c0-8.96,7.27-16.23,16.23-16.23h33.87c8.96,0,16.23,7.27,16.23,16.23v11.71c0,4.37-1.72,8.33-4.53,11.25,1.52,2.47,2.4,5.38,2.4,8.5v12.1c0,8.35-6.31,15.23-14.42,16.13v18.71c0,8.96-7.27,16.23-16.23,16.23h-17.33Z"></path><path class="cls-2" d="M742.41,750.7c-11.95,0-39.74-4.1-39.74-42.07v-29.13c0-37.8,27.79-41.88,39.74-41.88,25.38,0,39.94,15.26,39.94,41.88v29.13c0,26.73-14.56,42.07-39.94,42.07Z"></path><path class="cls-2" d="M807.64,749.54c-2.4,0-4.7-.52-6.77-1.48-2.06.95-4.36,1.48-6.78,1.48h-17.32c-8.96,0-16.23-7.27-16.23-16.23v-78.4c0-8.96,7.27-16.23,16.23-16.23h21.58c36.77,0,42.26,23.14,42.26,36.94,0,5.08,0,16.3-7.32,25.47l7.87,27.79c1.39,4.89.4,10.15-2.67,14.21-3.07,4.06-7.86,6.44-12.94,6.44h-17.9Z"></path><path class="cls-2" d="M879.46,749.54c-1.85,0-3.62-.31-5.28-.88-1.66.57-3.43.88-5.27.88h-10.94c-1.89,0-3.72-.32-5.42-.93-1.7.6-3.52.93-5.42.93h-12.48c-4.35,0-8.52-1.75-11.57-4.85-3.05-3.1-4.73-7.3-4.65-11.66l1.35-78.4c.15-8.85,7.37-15.95,16.23-15.95h18.58c3.28,0,6.37.98,8.95,2.69,2.59-1.71,5.67-2.69,8.95-2.69h17.9c8.85,0,16.07,7.1,16.23,15.95l1.35,78.4c.08,4.35-1.6,8.55-4.65,11.66-3.05,3.1-7.22,4.85-11.57,4.85h-12.29Z"></path><path class="cls-2" d="M903.18,749.54c-8.96,0-16.23-7.27-16.23-16.23v-78.4c0-8.96,7.27-16.23,16.23-16.23h35.23c8.96,0,16.23,7.27,16.23,16.23v11.81c0,5.01-2.27,9.49-5.83,12.46,1.01,2.12,1.58,4.49,1.58,6.99v12c0,3.62-1.18,6.96-3.18,9.65,4.58,2.87,7.63,7.96,7.63,13.77v11.71c0,8.96-7.27,16.23-16.23,16.23h-35.42Z"></path><path class="cls-2" d="M967.35,750.7c-11.25,0-37.55-3.95-38.77-40.56-.18-5.52,2.42-10.54,6.62-13.62-3.53-5.38-6.53-12.68-6.53-22.14,0-21.98,15.35-36.75,38.2-36.75,8.09,0,34.56,2.74,35.67,37.98.17,5.51-2.43,10.51-6.6,13.59,4.54,6.3,8.16,14.59,8.16,25.54,0,20.51-15.8,35.97-36.75,35.97Z"></path></g><g><path class="cls-2" d="M557.83,748.68c-18,0-39.46-7.23-39.46-41.68v-54.1c0-8.96,7.27-16.23,16.23-16.23h17.13c2.14,0,4.18.41,6.05,1.16,1.87-.75,3.91-1.16,6.05-1.16h17.23c8.96,0,16.23,7.27,16.23,16.23v54.1c0,36.27-24.72,41.68-39.46,41.68Z"></path><path class="cls-2" d="M623.06,747.51c-2.88,0-5.63-.76-8.03-2.13-2.37,1.35-5.11,2.13-8.03,2.13h-14.81c-8.96,0-16.23-7.27-16.23-16.23v-78.4c0-8.96,7.27-16.23,16.23-16.23h12.19c2.88,0,5.63.76,8.03,2.13,2.37-1.35,5.11-2.13,8.03-2.13h14.33c8.96,0,16.23,7.27,16.23,16.23v78.4c0,8.96-7.27,16.23-16.23,16.23h-11.71Z"></path><rect class="cls-2" x="630.46" y="636.66" width="49.78" height="110.85" rx="16.23" ry="16.23"></rect><path class="cls-2" d="M675.82,747.51c-8.96,0-16.23-7.27-16.23-16.23v-78.4c0-8.96,7.27-16.23,16.23-16.23h33.87c8.96,0,16.23,7.27,16.23,16.23v11.71c0,4.37-1.72,8.33-4.53,11.25,1.52,2.47,2.4,5.38,2.4,8.5v12.1c0,8.35-6.31,15.23-14.42,16.13v18.71c0,8.96-7.27,16.23-16.23,16.23h-17.33Z"></path><path class="cls-2" d="M740.38,748.68c-11.95,0-39.74-4.1-39.74-42.07v-29.13c0-37.8,27.79-41.88,39.74-41.88,25.38,0,39.94,15.26,39.94,41.88v29.13c0,26.73-14.56,42.07-39.94,42.07Z"></path><path class="cls-2" d="M805.62,747.51c-2.4,0-4.7-.52-6.77-1.48-2.06.95-4.36,1.48-6.78,1.48h-17.32c-8.96,0-16.23-7.27-16.23-16.23v-78.4c0-8.96,7.27-16.23,16.23-16.23h21.58c36.77,0,42.26,23.14,42.26,36.94,0,5.08,0,16.3-7.32,25.47l7.87,27.79c1.39,4.89.4,10.15-2.67,14.21-3.07,4.06-7.86,6.44-12.94,6.44h-17.9Z"></path><path class="cls-2" d="M877.44,747.51c-1.85,0-3.62-.31-5.28-.88-1.66.57-3.43.88-5.27.88h-10.94c-1.89,0-3.72-.32-5.42-.93-1.7.6-3.52.93-5.42.93h-12.48c-4.35,0-8.52-1.75-11.57-4.85-3.05-3.1-4.73-7.3-4.65-11.66l1.35-78.4c.15-8.85,7.37-15.95,16.23-15.95h18.58c3.28,0,6.37.98,8.95,2.69,2.59-1.71,5.67-2.69,8.95-2.69h17.9c8.85,0,16.07,7.1,16.23,15.95l1.35,78.4c.08,4.35-1.6,8.55-4.65,11.66-3.05,3.1-7.22,4.85-11.57,4.85h-12.29Z"></path><path class="cls-2" d="M901.15,747.51c-8.96,0-16.23-7.27-16.23-16.23v-78.4c0-8.96,7.27-16.23,16.23-16.23h35.23c8.96,0,16.23,7.27,16.23,16.23v11.81c0,5.01-2.27,9.49-5.83,12.46,1.01,2.12,1.58,4.49,1.58,6.99v12c0,3.62-1.18,6.96-3.18,9.65,4.58,2.87,7.63,7.96,7.63,13.77v11.71c0,8.96-7.27,16.23-16.23,16.23h-35.42Z"></path><path class="cls-2" d="M965.33,748.68c-11.25,0-37.55-3.95-38.77-40.56-.18-5.52,2.42-10.54,6.62-13.62-3.53-5.38-6.53-12.68-6.53-22.14,0-21.98,15.35-36.75,38.2-36.75,8.09,0,34.56,2.74,35.67,37.98.17,5.51-2.43,10.51-6.6,13.59,4.54,6.3,8.16,14.59,8.16,25.54,0,20.51-15.8,35.97-36.75,35.97Z"></path></g><g><path class="cls-2" d="M555.8,746.65c-18,0-39.46-7.23-39.46-41.68v-54.1c0-8.96,7.27-16.23,16.23-16.23h17.13c2.14,0,4.18.41,6.05,1.16,1.87-.75,3.91-1.16,6.05-1.16h17.23c8.96,0,16.23,7.27,16.23,16.23v54.1c0,36.27-24.72,41.68-39.46,41.68Z"></path><path class="cls-2" d="M621.04,745.49c-2.88,0-5.63-.76-8.03-2.13-2.37,1.35-5.11,2.13-8.03,2.13h-14.81c-8.96,0-16.23-7.27-16.23-16.23v-78.4c0-8.96,7.27-16.23,16.23-16.23h12.19c2.88,0,5.63.76,8.03,2.13,2.37-1.35,5.11-2.13,8.03-2.13h14.33c8.96,0,16.23,7.27,16.23,16.23v78.4c0,8.96-7.27,16.23-16.23,16.23h-11.71Z"></path><rect class="cls-2" x="628.43" y="634.63" width="49.78" height="110.85" rx="16.23" ry="16.23"></rect><path class="cls-2" d="M673.79,745.49c-8.96,0-16.23-7.27-16.23-16.23v-78.4c0-8.96,7.27-16.23,16.23-16.23h33.87c8.96,0,16.23,7.27,16.23,16.23v11.71c0,4.37-1.72,8.33-4.53,11.25,1.52,2.47,2.4,5.38,2.4,8.5v12.1c0,8.35-6.31,15.23-14.42,16.13v18.71c0,8.96-7.27,16.23-16.23,16.23h-17.33Z"></path><path class="cls-2" d="M738.35,746.65c-11.95,0-39.74-4.1-39.74-42.07v-29.13c0-37.8,27.79-41.88,39.74-41.88,25.38,0,39.94,15.26,39.94,41.88v29.13c0,26.73-14.56,42.07-39.94,42.07Z"></path><path class="cls-2" d="M803.59,745.49c-2.4,0-4.7-.52-6.77-1.48-2.06.95-4.36,1.48-6.78,1.48h-17.32c-8.96,0-16.23-7.27-16.23-16.23v-78.4c0-8.96,7.27-16.23,16.23-16.23h21.58c36.77,0,42.26,23.14,42.26,36.94,0,5.08,0,16.3-7.32,25.47l7.87,27.79c1.39,4.89.4,10.15-2.67,14.21-3.07,4.06-7.86,6.44-12.94,6.44h-17.9Z"></path><path class="cls-2" d="M875.41,745.49c-1.85,0-3.62-.31-5.28-.88-1.66.57-3.43.88-5.27.88h-10.94c-1.89,0-3.72-.32-5.42-.93-1.7.6-3.52.93-5.42.93h-12.48c-4.35,0-8.52-1.75-11.57-4.85-3.05-3.1-4.73-7.3-4.65-11.66l1.35-78.4c.15-8.85,7.37-15.95,16.23-15.95h18.58c3.28,0,6.37.98,8.95,2.69,2.59-1.71,5.67-2.69,8.95-2.69h17.9c8.85,0,16.07,7.1,16.23,15.95l1.35,78.4c.08,4.35-1.6,8.55-4.65,11.66-3.05,3.1-7.22,4.85-11.57,4.85h-12.29Z"></path><path class="cls-2" d="M899.12,745.49c-8.96,0-16.23-7.27-16.23-16.23v-78.4c0-8.96,7.27-16.23,16.23-16.23h35.23c8.96,0,16.23,7.27,16.23,16.23v11.81c0,5.01-2.27,9.49-5.83,12.46,1.01,2.12,1.58,4.49,1.58,6.99v12c0,3.62-1.18,6.96-3.18,9.65,4.58,2.87,7.63,7.96,7.63,13.77v11.71c0,8.96-7.27,16.23-16.23,16.23h-35.42Z"></path><path class="cls-2" d="M963.3,746.65c-11.25,0-37.55-3.95-38.77-40.56-.18-5.52,2.42-10.54,6.62-13.62-3.53-5.38-6.53-12.68-6.53-22.14,0-21.98,15.35-36.75,38.2-36.75,8.09,0,34.56,2.74,35.67,37.98.17,5.51-2.43,10.51-6.6,13.59,4.54,6.3,8.16,14.59,8.16,25.54,0,20.51-15.8,35.97-36.75,35.97Z"></path></g><g><path class="cls-2" d="M553.77,744.62c-18,0-39.46-7.23-39.46-41.68v-54.1c0-8.96,7.27-16.23,16.23-16.23h17.13c2.14,0,4.18.41,6.05,1.16,1.87-.75,3.91-1.16,6.05-1.16h17.23c8.96,0,16.23,7.27,16.23,16.23v54.1c0,36.27-24.72,41.68-39.46,41.68Z"></path><path class="cls-2" d="M619.01,743.46c-2.88,0-5.63-.76-8.03-2.13-2.37,1.35-5.11,2.13-8.03,2.13h-14.81c-8.96,0-16.23-7.27-16.23-16.23v-78.4c0-8.96,7.27-16.23,16.23-16.23h12.19c2.88,0,5.63.76,8.03,2.13,2.37-1.35,5.11-2.13,8.03-2.13h14.33c8.96,0,16.23,7.27,16.23,16.23v78.4c0,8.96-7.27,16.23-16.23,16.23h-11.71Z"></path><rect class="cls-2" x="626.4" y="632.61" width="49.78" height="110.85" rx="16.23" ry="16.23"></rect><path class="cls-2" d="M671.76,743.46c-8.96,0-16.23-7.27-16.23-16.23v-78.4c0-8.96,7.27-16.23,16.23-16.23h33.87c8.96,0,16.23,7.27,16.23,16.23v11.71c0,4.37-1.72,8.33-4.53,11.25,1.52,2.47,2.4,5.38,2.4,8.5v12.1c0,8.35-6.31,15.23-14.42,16.13v18.71c0,8.96-7.27,16.23-16.23,16.23h-17.33Z"></path><path class="cls-2" d="M736.32,744.62c-11.95,0-39.74-4.1-39.74-42.07v-29.13c0-37.8,27.79-41.88,39.74-41.88,25.38,0,39.94,15.26,39.94,41.88v29.13c0,26.73-14.56,42.07-39.94,42.07Z"></path><path class="cls-2" d="M801.56,743.46c-2.4,0-4.7-.52-6.77-1.48-2.06.95-4.36,1.48-6.78,1.48h-17.32c-8.96,0-16.23-7.27-16.23-16.23v-78.4c0-8.96,7.27-16.23,16.23-16.23h21.58c36.77,0,42.26,23.14,42.26,36.94,0,5.08,0,16.3-7.32,25.47l7.87,27.79c1.39,4.89.4,10.15-2.67,14.21-3.07,4.06-7.86,6.44-12.94,6.44h-17.9Z"></path><path class="cls-2" d="M873.38,743.46c-1.85,0-3.62-.31-5.28-.88-1.66.57-3.43.88-5.27.88h-10.94c-1.89,0-3.72-.32-5.42-.93-1.7.6-3.52.93-5.42.93h-12.48c-4.35,0-8.52-1.75-11.57-4.85-3.05-3.1-4.73-7.3-4.65-11.66l1.35-78.4c.15-8.85,7.37-15.95,16.23-15.95h18.58c3.28,0,6.37.98,8.95,2.69,2.59-1.71,5.67-2.69,8.95-2.69h17.9c8.85,0,16.07,7.1,16.23,15.95l1.35,78.4c.08,4.35-1.6,8.55-4.65,11.66-3.05,3.1-7.22,4.85-11.57,4.85h-12.29Z"></path><path class="cls-2" d="M897.09,743.46c-8.96,0-16.23-7.27-16.23-16.23v-78.4c0-8.96,7.27-16.23,16.23-16.23h35.23c8.96,0,16.23,7.27,16.23,16.23v11.81c0,5.01-2.27,9.49-5.83,12.46,1.01,2.12,1.58,4.49,1.58,6.99v12c0,3.62-1.18,6.96-3.18,9.65,4.58,2.87,7.63,7.96,7.63,13.77v11.71c0,8.96-7.27,16.23-16.23,16.23h-35.42Z"></path><path class="cls-2" d="M961.27,744.62c-11.25,0-37.55-3.95-38.77-40.56-.18-5.52,2.42-10.54,6.62-13.62-3.53-5.38-6.53-12.68-6.53-22.14,0-21.98,15.35-36.75,38.2-36.75,8.09,0,34.56,2.74,35.67,37.98.17,5.51-2.43,10.51-6.6,13.59,4.54,6.3,8.16,14.59,8.16,25.54,0,20.51-15.8,35.97-36.75,35.97Z"></path></g><g><path class="cls-2" d="M551.74,742.59c-18,0-39.46-7.23-39.46-41.68v-54.1c0-8.96,7.27-16.23,16.23-16.23h17.13c2.14,0,4.18.41,6.05,1.16,1.87-.75,3.91-1.16,6.05-1.16h17.23c8.96,0,16.23,7.27,16.23,16.23v54.1c0,36.27-24.72,41.68-39.46,41.68Z"></path><path class="cls-2" d="M616.98,741.43c-2.88,0-5.63-.76-8.03-2.13-2.37,1.35-5.11,2.13-8.03,2.13h-14.81c-8.96,0-16.23-7.27-16.23-16.23v-78.4c0-8.96,7.27-16.23,16.23-16.23h12.19c2.88,0,5.63.76,8.03,2.13,2.37-1.35,5.11-2.13,8.03-2.13h14.33c8.96,0,16.23,7.27,16.23,16.23v78.4c0,8.96-7.27,16.23-16.23,16.23h-11.71Z"></path><rect class="cls-2" x="624.37" y="630.58" width="49.78" height="110.85" rx="16.23" ry="16.23"></rect><path class="cls-2" d="M669.73,741.43c-8.96,0-16.23-7.27-16.23-16.23v-78.4c0-8.96,7.27-16.23,16.23-16.23h33.87c8.96,0,16.23,7.27,16.23,16.23v11.71c0,4.37-1.72,8.33-4.53,11.25,1.52,2.47,2.4,5.38,2.4,8.5v12.1c0,8.35-6.31,15.23-14.42,16.13v18.71c0,8.96-7.27,16.23-16.23,16.23h-17.33Z"></path><path class="cls-2" d="M734.29,742.59c-11.95,0-39.74-4.1-39.74-42.07v-29.13c0-37.8,27.79-41.88,39.74-41.88,25.38,0,39.94,15.26,39.94,41.88v29.13c0,26.73-14.56,42.07-39.94,42.07Z"></path><path class="cls-2" d="M799.53,741.43c-2.4,0-4.7-.52-6.77-1.48-2.06.95-4.36,1.48-6.78,1.48h-17.32c-8.96,0-16.23-7.27-16.23-16.23v-78.4c0-8.96,7.27-16.23,16.23-16.23h21.58c36.77,0,42.26,23.14,42.26,36.94,0,5.08,0,16.3-7.32,25.47l7.87,27.79c1.39,4.89.4,10.15-2.67,14.21-3.07,4.06-7.86,6.44-12.94,6.44h-17.9Z"></path><path class="cls-2" d="M871.35,741.43c-1.85,0-3.62-.31-5.28-.88-1.66.57-3.43.88-5.27.88h-10.94c-1.89,0-3.72-.32-5.42-.93-1.7.6-3.52.93-5.42.93h-12.48c-4.35,0-8.52-1.75-11.57-4.85-3.05-3.1-4.73-7.3-4.65-11.66l1.35-78.4c.15-8.85,7.37-15.95,16.23-15.95h18.58c3.28,0,6.37.98,8.95,2.69,2.59-1.71,5.67-2.69,8.95-2.69h17.9c8.85,0,16.07,7.1,16.23,15.95l1.35,78.4c.08,4.35-1.6,8.55-4.65,11.66-3.05,3.1-7.22,4.85-11.57,4.85h-12.29Z"></path><path class="cls-2" d="M895.07,741.43c-8.96,0-16.23-7.27-16.23-16.23v-78.4c0-8.96,7.27-16.23,16.23-16.23h35.23c8.96,0,16.23,7.27,16.23,16.23v11.81c0,5.01-2.27,9.49-5.83,12.46,1.01,2.12,1.58,4.49,1.58,6.99v12c0,3.62-1.18,6.96-3.18,9.65,4.58,2.87,7.63,7.96,7.63,13.77v11.71c0,8.96-7.27,16.23-16.23,16.23h-35.42Z"></path><path class="cls-2" d="M959.24,742.59c-11.25,0-37.55-3.95-38.77-40.56-.18-5.52,2.42-10.54,6.62-13.62-3.53-5.38-6.53-12.68-6.53-22.14,0-21.98,15.35-36.75,38.2-36.75,8.09,0,34.56,2.74,35.67,37.98.17,5.51-2.43,10.51-6.6,13.59,4.54,6.3,8.16,14.59,8.16,25.54,0,20.51-15.8,35.97-36.75,35.97Z"></path></g></g><g><path class="cls-3" d="M528.51,700.91v-54.1h17.13v56.72c0,4.94.58,10.36,6.1,10.36s6-5.42,6-10.36v-56.72h17.23v54.1c0,16.45-5.23,25.45-23.23,25.45s-23.23-9-23.23-25.45Z"></path><path class="cls-3" d="M586.1,646.81h12.19l16.07,37.75v-37.75h14.33v78.4h-11.71l-16.07-40.65v40.65h-14.81v-78.4Z"></path><path class="cls-3" d="M640.6,646.81h17.33v78.4h-17.33v-78.4Z"></path><path class="cls-3" d="M669.73,646.81h33.87v11.71h-16.55v19.74h14.42v12.1h-14.42v34.84h-17.33v-78.4Z"></path><path class="cls-3" d="M710.77,700.52v-29.13c0-16.16,5.9-25.65,23.52-25.65s23.71,9.49,23.71,25.65v29.13c0,16.16-6,25.84-23.71,25.84s-23.52-9.68-23.52-25.84ZM740.29,704.88v-37.75c0-4.65-.58-9.19-6-9.19-5.13,0-5.81,4.55-5.81,9.19v37.75c0,4.45.39,9.19,5.81,9.19s6-4.74,6-9.19Z"></path><path class="cls-3" d="M768.66,646.81h21.58c15.78,0,26.04,4.26,26.04,20.71,0,9.68-1.84,16.07-9.58,19.74l10.74,37.94h-17.9l-8.62-35.13h-4.94v35.13h-17.32v-78.4ZM790.82,680.1c7.26,0,9.39-4.07,9.39-11.03s-2.03-10.65-8.62-10.65h-5.61v21.68h4.84Z"></path><path class="cls-3" d="M827.89,646.81h18.58l8.61,45.59,9.29-45.59h17.9l1.35,78.4h-12.29l-1.45-52.17-9.1,52.17h-10.94l-9.68-52.56-1.16,52.56h-12.48l1.35-78.4Z"></path><path class="cls-3" d="M895.07,646.81h35.23v11.81h-17.9v19.45h13.65v12h-13.65v23.42h18.1v11.71h-35.42v-78.4Z"></path><path class="cls-3" d="M936.69,701.49l14.81-2.22c.19,10.16,2.52,13.94,6.87,13.94,3.58,0,4.35-3,4.35-5.71,0-6.49-3.29-10.36-8.61-14.91l-6.77-5.9c-6-5.03-10.55-10.94-10.55-20.42,0-13.26,8.42-20.52,21.97-20.52,16.74,0,19.16,13.07,19.45,22.26l-14.9,1.84c-.19-6.97-.68-11.42-5.13-11.42-3.19,0-4.64,3.39-4.64,6.1,0,5.81,3,8.9,7.55,12.87l6.49,5.71c6.77,5.81,12.19,12.68,12.19,23.52s-8.03,19.74-20.52,19.74c-14.81,0-21.97-7.45-22.55-24.87Z"></path></g></g></g></svg>